<?xml version="1.0" encoding="UTF-8"?>
<svg width="700pt" height="700pt" version="1.1" viewBox="0 0 700 700" xmlns="http://www.w3.org/2000/svg" xmlns:xlink="http://www.w3.org/1999/xlink">
 <defs>
  <symbol id="g" overflow="visible">
   <path d="m2.2031-0.125c-0.11719 0.054688-0.23438 0.09375-0.35938 0.125-0.11719 0.03125-0.24219 0.046875-0.375 0.046875-0.40625 0-0.72656-0.10938-0.95312-0.32812-0.23047-0.22656-0.34375-0.53516-0.34375-0.92188 0-0.38281 0.11328-0.6875 0.34375-0.90625 0.22656-0.22656 0.54688-0.34375 0.95312-0.34375 0.13281 0 0.25781 0.015625 0.375 0.046875 0.125 0.03125 0.24219 0.078125 0.35938 0.14062v0.5c-0.11719-0.082031-0.23047-0.14062-0.34375-0.17188-0.10547-0.039062-0.21875-0.0625-0.34375-0.0625-0.21875 0-0.39062 0.074219-0.51562 0.21875-0.125 0.13672-0.1875 0.32812-0.1875 0.57812s0.0625 0.44922 0.1875 0.59375c0.125 0.13672 0.29688 0.20312 0.51562 0.20312 0.125 0 0.23828-0.015625 0.34375-0.046875 0.11328-0.039063 0.22656-0.097656 0.34375-0.17188z"/>
  </symbol>
  <symbol id="a" overflow="visible">
   <path d="m1.6094-1.3125c-0.042969-0.019531-0.089844-0.035156-0.14062-0.046875-0.054688-0.007813-0.10547-0.015625-0.15625-0.015625-0.14844 0-0.26172 0.046875-0.34375 0.14062-0.074219 0.09375-0.10938 0.23047-0.10938 0.40625v0.82812h-0.57812v-1.7969h0.57812v0.29688c0.070313-0.125 0.15625-0.21094 0.25-0.26562 0.09375-0.050781 0.20703-0.078125 0.34375-0.078125h0.0625c0.019531 0 0.050781 0.007812 0.09375 0.015625z"/>
  </symbol>
  <symbol id="b" overflow="visible">
   <path d="m2.0781-0.90625v0.17188h-1.3438c0.007813 0.125 0.054687 0.22656 0.14062 0.29688 0.082031 0.0625 0.20312 0.09375 0.35938 0.09375 0.11328 0 0.23438-0.015625 0.35938-0.046875 0.13281-0.03125 0.26562-0.082031 0.39062-0.15625v0.4375c-0.13672 0.054688-0.27344 0.089844-0.40625 0.10938-0.13672 0.03125-0.27344 0.046875-0.40625 0.046875-0.32422 0-0.57812-0.082031-0.76562-0.25-0.17969-0.16406-0.26562-0.39844-0.26562-0.70312 0-0.28906 0.085937-0.51953 0.26562-0.6875 0.17578-0.16406 0.42188-0.25 0.73438-0.25 0.28125 0 0.50391 0.089844 0.67188 0.26562 0.17578 0.16797 0.26562 0.39062 0.26562 0.67188zm-0.59375-0.1875c0-0.11328-0.03125-0.20312-0.09375-0.26562-0.0625-0.070313-0.14844-0.10938-0.25-0.10938-0.11719 0-0.21094 0.03125-0.28125 0.09375-0.0625 0.0625-0.10547 0.15625-0.125 0.28125z"/>
  </symbol>
  <symbol id="c" overflow="visible">
   <path d="m1.0781-0.8125c-0.11719 0-0.20312 0.023438-0.26562 0.0625-0.0625 0.042969-0.09375 0.10547-0.09375 0.1875 0 0.074219 0.023438 0.13281 0.078125 0.17188 0.050781 0.03125 0.11719 0.046875 0.20312 0.046875 0.10156 0 0.19141-0.035156 0.26562-0.10938 0.082031-0.070313 0.125-0.17188 0.125-0.29688v-0.0625zm0.89062-0.21875v1.0312h-0.57812v-0.26562c-0.085937 0.10547-0.17188 0.18359-0.26562 0.23438s-0.21484 0.078125-0.35938 0.078125c-0.1875 0-0.33984-0.050781-0.45312-0.15625-0.11719-0.11328-0.17188-0.25781-0.17188-0.4375 0-0.20703 0.070313-0.35938 0.21875-0.45312 0.14453-0.10156 0.375-0.15625 0.6875-0.15625h0.34375v-0.046875c0-0.09375-0.039063-0.16016-0.10938-0.20312-0.074219-0.039062-0.1875-0.0625-0.34375-0.0625-0.125 0-0.24219 0.015625-0.34375 0.046875-0.10547 0.023437-0.20312 0.058594-0.29688 0.10938v-0.4375c0.125-0.03125 0.25-0.050781 0.375-0.0625 0.125-0.019531 0.25-0.03125 0.375-0.03125 0.32031 0 0.55469 0.0625 0.70312 0.1875 0.14453 0.125 0.21875 0.33594 0.21875 0.625z"/>
  </symbol>
  <symbol id="e" overflow="visible">
   <path d="m0.90625-2.3125v0.51562h0.59375v0.40625h-0.59375v0.76562c0 0.085938 0.015625 0.14062 0.046875 0.17188s0.097656 0.046875 0.20312 0.046875h0.29688v0.40625h-0.5c-0.23047 0-0.39062-0.046875-0.48438-0.14062s-0.14062-0.25391-0.14062-0.48438v-0.76562h-0.28125v-0.40625h0.28125v-0.51562z"/>
  </symbol>
  <symbol id="j" overflow="visible">
   <path d="m1.5-1.5312v-0.96875h0.57812v2.5h-0.57812v-0.26562c-0.074219 0.11719-0.16406 0.19922-0.26562 0.25-0.09375 0.039062-0.20312 0.0625-0.32812 0.0625-0.21875 0-0.40234-0.085938-0.54688-0.26562-0.14844-0.17578-0.21875-0.40625-0.21875-0.6875 0-0.26953 0.070313-0.49219 0.21875-0.67188 0.14453-0.17578 0.32812-0.26562 0.54688-0.26562 0.125 0 0.23438 0.027344 0.32812 0.078125 0.10156 0.042969 0.19141 0.12109 0.26562 0.23438zm-0.375 1.1562c0.125 0 0.21875-0.039062 0.28125-0.125 0.0625-0.09375 0.09375-0.22656 0.09375-0.40625 0-0.16406-0.03125-0.28906-0.09375-0.375-0.0625-0.09375-0.15625-0.14062-0.28125-0.14062s-0.21875 0.046875-0.28125 0.14062c-0.0625 0.085938-0.09375 0.21094-0.09375 0.375 0 0.17969 0.03125 0.3125 0.09375 0.40625 0.0625 0.085938 0.15625 0.125 0.28125 0.125z"/>
  </symbol>
  <symbol id="f" overflow="visible">
   <path d="m1.2344-0.375c0.125 0 0.21875-0.039062 0.28125-0.125 0.0625-0.09375 0.09375-0.22656 0.09375-0.40625 0-0.16406-0.03125-0.28906-0.09375-0.375-0.0625-0.09375-0.15625-0.14062-0.28125-0.14062s-0.21875 0.046875-0.28125 0.14062c-0.0625 0.085938-0.09375 0.21094-0.09375 0.375 0 0.17969 0.03125 0.3125 0.09375 0.40625 0.0625 0.085938 0.15625 0.125 0.28125 0.125zm-0.375-1.1562c0.070313-0.11328 0.15625-0.19141 0.25-0.23438 0.10156-0.050781 0.21875-0.078125 0.34375-0.078125 0.21875 0 0.39844 0.089844 0.54688 0.26562 0.14453 0.17969 0.21875 0.40234 0.21875 0.67188 0 0.28125-0.074219 0.51172-0.21875 0.6875-0.14844 0.17969-0.32812 0.26562-0.54688 0.26562-0.125 0-0.24219-0.027344-0.34375-0.078125-0.09375-0.050781-0.17969-0.12891-0.25-0.23438v0.26562h-0.57812v-2.5h0.57812z"/>
  </symbol>
  <symbol id="i" overflow="visible">
   <path d="m0.046875-1.7969h0.5625l0.48438 1.2188 0.42188-1.2188h0.57812l-0.76562 1.9688c-0.074219 0.19531-0.16406 0.33594-0.26562 0.42188-0.10547 0.082031-0.24219 0.125-0.40625 0.125h-0.32812v-0.39062h0.1875c0.09375 0 0.16016-0.015625 0.20312-0.046875 0.050781-0.03125 0.085938-0.085938 0.10938-0.15625l0.015625-0.0625z"/>
  </symbol>
  <symbol id="h" overflow="visible">
   <path d="m1.7656-0.4375h-0.96875l-0.15625 0.4375h-0.625l0.89062-2.4062h0.73438l0.89062 2.4062h-0.625zm-0.8125-0.45312h0.65625l-0.32812-0.95312z"/>
  </symbol>
  <symbol id="u" overflow="visible">
   <path d="m0.28125-2.5h0.57812v2.5h-0.57812z"/>
  </symbol>
  <symbol id="t" overflow="visible">
   <path d="m0.046875-1.7969h0.57812l0.45312 1.2344 0.4375-1.2344h0.57812l-0.70312 1.7969h-0.625z"/>
  </symbol>
  <symbol id="d" overflow="visible">
   <path d="m1.1406-1.4375c-0.13672 0-0.24219 0.046875-0.3125 0.14062-0.0625 0.09375-0.09375 0.22656-0.09375 0.39062 0 0.17969 0.03125 0.3125 0.09375 0.40625 0.070313 0.09375 0.17578 0.14062 0.3125 0.14062 0.125 0 0.21875-0.046875 0.28125-0.14062s0.09375-0.22656 0.09375-0.40625c0-0.16406-0.03125-0.29688-0.09375-0.39062s-0.15625-0.14062-0.28125-0.14062zm0-0.40625c0.30078 0 0.53906 0.085938 0.71875 0.25 0.17578 0.16797 0.26562 0.39844 0.26562 0.6875 0 0.30469-0.089844 0.53906-0.26562 0.70312-0.17969 0.16797-0.41797 0.25-0.71875 0.25-0.3125 0-0.55859-0.082031-0.73438-0.25-0.17969-0.16406-0.26562-0.39844-0.26562-0.70312 0-0.28906 0.085937-0.51953 0.26562-0.6875 0.17578-0.16406 0.42188-0.25 0.73438-0.25z"/>
  </symbol>
  <symbol id="s" overflow="visible">
   <path d="m1.4688-2.5v0.375h-0.32812c-0.085937 0-0.14062 0.015625-0.17188 0.046875s-0.046875 0.085937-0.046875 0.15625v0.125h0.5v0.40625h-0.5v1.3906h-0.57812v-1.3906h-0.28125v-0.40625h0.28125v-0.125c0-0.19531 0.050781-0.34375 0.15625-0.4375 0.11328-0.09375 0.28516-0.14062 0.51562-0.14062z"/>
  </symbol>
  <symbol id="r" overflow="visible">
   <path d="m1.9531-1.5c0.070313-0.11328 0.15625-0.19531 0.25-0.25 0.10156-0.0625 0.21094-0.09375 0.32812-0.09375 0.20703 0 0.36328 0.0625 0.46875 0.1875 0.11328 0.125 0.17188 0.3125 0.17188 0.5625v1.0938h-0.57812v-0.9375-0.046875-0.0625c0-0.125-0.023438-0.21094-0.0625-0.26562-0.03125-0.0625-0.089844-0.09375-0.17188-0.09375-0.10547 0-0.1875 0.046875-0.25 0.14062-0.0625 0.085937-0.09375 0.21094-0.09375 0.375v0.89062h-0.57812v-0.9375c0-0.19531-0.023438-0.32031-0.0625-0.375-0.03125-0.0625-0.089844-0.09375-0.17188-0.09375-0.11719 0-0.20312 0.046875-0.26562 0.14062-0.054688 0.085937-0.078125 0.21094-0.078125 0.375v0.89062h-0.57812v-1.7969h0.57812v0.26562c0.0625-0.10156 0.14062-0.17969 0.23438-0.23438 0.09375-0.050781 0.19531-0.078125 0.3125-0.078125 0.125 0 0.23438 0.03125 0.32812 0.09375 0.09375 0.054688 0.16406 0.13672 0.21875 0.25z"/>
  </symbol>
  <symbol id="q" overflow="visible">
   <path d="m2.0938-1.0938v1.0938h-0.57812v-0.84375c0-0.15625-0.007813-0.25781-0.015625-0.3125-0.011719-0.0625-0.023438-0.10938-0.03125-0.14062-0.03125-0.03125-0.070312-0.054687-0.10938-0.078125-0.03125-0.019531-0.074219-0.03125-0.125-0.03125-0.11719 0-0.21094 0.046875-0.28125 0.14062-0.0625 0.085937-0.09375 0.21094-0.09375 0.375v0.89062h-0.57812v-2.5h0.57812v0.96875c0.082031-0.11328 0.17188-0.19141 0.26562-0.23438 0.10156-0.050781 0.21094-0.078125 0.32812-0.078125 0.20703 0 0.36328 0.0625 0.46875 0.1875 0.11328 0.125 0.17188 0.3125 0.17188 0.5625z"/>
  </symbol>
  <symbol id="p" overflow="visible">
   <path d="m0.29688-2.4062h0.70312l0.875 1.6562v-1.6562h0.57812v2.4062h-0.6875l-0.875-1.6562v1.6562h-0.59375z"/>
  </symbol>
  <symbol id="o" overflow="visible">
   <path d="m0.25-0.70312v-1.0938h0.59375v0.17188c0 0.10547-0.007812 0.23047-0.015625 0.375v0.29688c0 0.14844 0.003906 0.25 0.015625 0.3125 0.007812 0.0625 0.023438 0.10938 0.046875 0.14062 0.019531 0.03125 0.046875 0.058594 0.078125 0.078125 0.039062 0.023437 0.085938 0.03125 0.14062 0.03125 0.11328 0 0.20703-0.046875 0.28125-0.14062 0.070313-0.09375 0.10938-0.21875 0.10938-0.375v-0.89062h0.5625v1.7969h-0.5625v-0.26562c-0.09375 0.10547-0.1875 0.18359-0.28125 0.23438s-0.20312 0.078125-0.32812 0.078125c-0.21094 0-0.37109-0.0625-0.48438-0.1875-0.10547-0.13281-0.15625-0.32031-0.15625-0.5625z"/>
  </symbol>
  <symbol id="n" overflow="visible">
   <path d="m2.0938-1.0938v1.0938h-0.57812v-0.84375c0-0.15625-0.007813-0.25781-0.015625-0.3125-0.011719-0.0625-0.023438-0.10938-0.03125-0.14062-0.03125-0.03125-0.070312-0.054687-0.10938-0.078125-0.03125-0.019531-0.074219-0.03125-0.125-0.03125-0.11719 0-0.21094 0.046875-0.28125 0.14062-0.0625 0.085937-0.09375 0.21094-0.09375 0.375v0.89062h-0.57812v-1.7969h0.57812v0.26562c0.082031-0.11328 0.17188-0.19141 0.26562-0.23438 0.10156-0.050781 0.21094-0.078125 0.32812-0.078125 0.20703 0 0.36328 0.0625 0.46875 0.1875 0.11328 0.125 0.17188 0.3125 0.17188 0.5625z"/>
  </symbol>
  <symbol id="m" overflow="visible">
   <path d="m0.29688-2.4062h1.0312c0.3125 0 0.54688 0.070312 0.70312 0.20312 0.16406 0.13672 0.25 0.32812 0.25 0.57812 0 0.26172-0.085938 0.46094-0.25 0.59375-0.15625 0.13672-0.39062 0.20312-0.70312 0.20312h-0.40625v0.82812h-0.625zm0.625 0.45312v0.67188h0.34375c0.125 0 0.21875-0.023438 0.28125-0.078125 0.0625-0.0625 0.09375-0.14844 0.09375-0.26562 0-0.10156-0.03125-0.17969-0.09375-0.23438-0.0625-0.0625-0.15625-0.09375-0.28125-0.09375z"/>
  </symbol>
  <symbol id="l" overflow="visible">
   <path d="m0.28125-1.7969h0.57812v1.7656c0 0.23828-0.0625 0.42188-0.1875 0.54688-0.11719 0.13281-0.28125 0.20312-0.5 0.20312h-0.28125v-0.39062h0.09375c0.11328 0 0.19141-0.027344 0.23438-0.078125 0.039062-0.042969 0.0625-0.13672 0.0625-0.28125zm0-0.70312h0.57812v0.46875h-0.57812z"/>
  </symbol>
  <symbol id="k" overflow="visible">
   <path d="m1.7344-1.75v0.46875c-0.085937-0.050781-0.16797-0.085938-0.25-0.10938-0.074219-0.03125-0.15234-0.046875-0.23438-0.046875-0.15625 0-0.28125 0.046875-0.375 0.14062s-0.14062 0.22656-0.14062 0.39062c0 0.17969 0.046875 0.3125 0.14062 0.40625s0.21875 0.14062 0.375 0.14062c0.09375 0 0.17578-0.015625 0.25-0.046875 0.082031-0.03125 0.16016-0.070312 0.23438-0.125v0.48438c-0.09375 0.03125-0.1875 0.050781-0.28125 0.0625-0.09375 0.019531-0.18359 0.03125-0.26562 0.03125-0.33594 0-0.59375-0.082031-0.78125-0.25-0.17969-0.16406-0.26562-0.39844-0.26562-0.70312 0-0.28906 0.085937-0.51953 0.26562-0.6875 0.1875-0.16406 0.44531-0.25 0.78125-0.25 0.09375 0 0.17969 0.011719 0.26562 0.03125 0.09375 0.011719 0.1875 0.03125 0.28125 0.0625z"/>
  </symbol>
 </defs>
 <g>
  <path d="m444.89 187.48h-6.4531c-1.9766 0-3.5547-1.582-3.5547-3.5547v-39.051c0-1.9766 1.582-3.5547 3.5547-3.5547h6.4531c1.9766 0 3.5547 1.582 3.5547 3.5547v39.051c0.003907 1.9727-1.5781 3.5547-3.5547 3.5547z"/>
  <path d="m262.09 187.48h-6.4531c-1.9766 0-3.5547-1.582-3.5547-3.5547v-39.051c0-1.9766 1.582-3.5547 3.5547-3.5547h6.4531c1.9766 0 3.5547 1.582 3.5547 3.5547v39.051c0 1.9727-1.582 3.5547-3.5547 3.5547z"/>
  <path d="m450.95 177.93v-28.578l9.8125 0.98828c0.39453 0 1.1211 0.59375 1.7773 2.9648 2.1719 7.7695 0.92188 22.391-0.92187 23.508z"/>
  <path d="m237.33 153.83c0.66016-2.3047 1.3828-2.8984 1.6445-2.8984l10.602-1.1211 0.003906 28.648-11.195-1.1211c-1.8438-1.1172-3.2266-15.738-1.0547-23.508z"/>
  <path d="m139.61 333.14c7.5078 4.8086 53.273 41.156 63.613 49.848-1.582 0.52734-3.2266 1.6445-4.4766 3.0273-4.2812 4.8086-3.4883 12.578 2.3047 21.402 6.9805 10.602 48.004 30.555 81.195 39.578 12.645 3.4258 21.203 4.9375 27.656 4.9375 11.129 0 16.727-4.543 19.164-15.738 0.98828-4.3477 1.8438-27.723 1.9102-53.34 0.26172-40.961 0.92188-84.816 1.9766-138.09 0.13281-15.477 0.066406-26.207-0.13281-38.656-0.066406-5.5312-0.13281-11.391-0.19922-18.176 0-0.66016-0.46094-1.1836-1.1211-1.25l-63.48-6.4531v-32.598l64.863-7.0469c0.66016-0.066407 1.1211-0.59375 1.1211-1.25l-0.066406-22.652c0-0.52734-0.32812-0.98828-0.78906-1.1836-16.859-6.7812-27.723-22.52-27.789-39.973-0.066407-11.723 4.4766-22.719 12.645-30.883 8.2305-8.2969 19.426-12.84 31.477-12.906 24.891 0 44.383 19.098 44.449 43.527 0.066407 17.516-10.801 33.254-27.59 40.168-0.46094 0.19922-0.78906 0.66016-0.78906 1.1836l0.066406 22.652c0 0.66016 0.46094 1.1836 1.1211 1.25l65.457 6.7812v32.531l-64.008 6.7812c-0.66016 0.066407-1.1211 0.59375-1.1211 1.25 0 6.1914-0.066406 11.59-0.066406 16.727-0.066406 13.434-0.13281 24.102 0.13281 40.168 1.3828 53.34 2.2383 97.262 2.6992 138.09 0.26172 25.551 1.25 48.992 2.2383 53.34 2.5039 11.129 8.1016 15.605 19.098 15.605 6.5195 0 15.078-1.582 27.855-5.1367 33.188-9.2188 74.016-29.371 80.93-40.039 5.7305-8.8242 6.5859-16.594 2.2383-21.402-1.25-1.3828-2.8984-2.5039-4.4766-3.0273 10.273-8.7578 55.777-45.371 63.219-50.18 0.66016 3.8203 0 18.637-3.0938 45.504-2.3047 19.82-4.7422 36.02-6.125 42.672-1.7773-3.7539-5.0039-5.793-9.418-5.793-7.8359 0-18.57 6.3203-29.438 17.254-14.289 14.422-41.816 35.559-53.668 41.223-0.92188 0.46094-2.6992 1.3164-5.0039 2.5039-8.7578 4.4102-25.09 12.512-32.266 15.016-7.8359 2.6992-47.414 16.66-58.477 26.605-0.85547 0.72266-1.7773 1.7773-2.832 2.832-2.8984 3.0273-6.8477 7.1797-9.8789 7.1797v1.25-1.25c-2.7656 0-6.9141-4.1484-9.9453-7.2422-1.0547-1.0547-1.9766-1.9766-2.7656-2.6992-8.625-7.6406-36.941-18.965-58.543-26.273-7.2422-2.4375-23.641-10.535-32.531-14.883-2.2383-1.1211-4.0156-1.9766-4.9375-2.4375-11.852-5.5977-39.512-26.605-53.867-40.961-10.93-10.867-21.664-17.121-29.438-17.121-4.4766 0-7.7695 2.043-9.4844 5.8594-1.4492-6.6523-3.9492-22.852-6.3867-42.672-3.0938-26.73-3.8203-41.613-3.2266-45.434zm210.46-235.29c12.906-0.066407 23.312-10.469 23.246-23.312-0.066406-12.773-10.469-23.18-23.246-23.18h-0.066406c-6.1914 0-12.051 2.4375-16.461 6.8477-4.4102 4.4102-6.7812 10.273-6.7812 16.461 0.0625 12.777 10.531 23.184 23.309 23.184z"/>
  <use x="70" y="569.878906" xlink:href="#g"/>
  <use x="72.417969" y="569.878906" xlink:href="#a"/>
  <use x="74.039062" y="569.878906" xlink:href="#b"/>
  <use x="76.273438" y="569.878906" xlink:href="#c"/>
  <use x="78.496094" y="569.878906" xlink:href="#e"/>
  <use x="80.070312" y="569.878906" xlink:href="#b"/>
  <use x="82.300781" y="569.878906" xlink:href="#j"/>
  <use x="85.804688" y="569.878906" xlink:href="#f"/>
  <use x="88.164062" y="569.878906" xlink:href="#i"/>
  <use x="91.453125" y="569.878906" xlink:href="#h"/>
  <use x="94.003906" y="569.878906" xlink:href="#u"/>
  <use x="95.132812" y="569.878906" xlink:href="#t"/>
  <use x="97.277344" y="569.878906" xlink:href="#c"/>
  <use x="99.5" y="569.878906" xlink:href="#a"/>
  <use x="101.125" y="569.878906" xlink:href="#d"/>
  <use x="104.53125" y="569.878906" xlink:href="#g"/>
  <use x="106.949219" y="569.878906" xlink:href="#c"/>
  <use x="109.171875" y="569.878906" xlink:href="#f"/>
  <use x="111.527344" y="569.878906" xlink:href="#a"/>
  <use x="113.152344" y="569.878906" xlink:href="#b"/>
  <use x="115.382812" y="569.878906" xlink:href="#a"/>
  <use x="117.007812" y="569.878906" xlink:href="#c"/>
  <use x="70" y="573.171875" xlink:href="#s"/>
  <use x="71.433594" y="573.171875" xlink:href="#a"/>
  <use x="73.054688" y="573.171875" xlink:href="#d"/>
  <use x="75.316406" y="573.171875" xlink:href="#r"/>
  <use x="79.894531" y="573.171875" xlink:href="#e"/>
  <use x="81.46875" y="573.171875" xlink:href="#q"/>
  <use x="83.8125" y="573.171875" xlink:href="#b"/>
  <use x="87.191406" y="573.171875" xlink:href="#p"/>
  <use x="89.949219" y="573.171875" xlink:href="#d"/>
  <use x="92.210938" y="573.171875" xlink:href="#o"/>
  <use x="94.554688" y="573.171875" xlink:href="#n"/>
  <use x="98.042969" y="573.171875" xlink:href="#m"/>
  <use x="100.457031" y="573.171875" xlink:href="#a"/>
  <use x="102.082031" y="573.171875" xlink:href="#d"/>
  <use x="104.34375" y="573.171875" xlink:href="#l"/>
  <use x="105.472656" y="573.171875" xlink:href="#b"/>
  <use x="107.707031" y="573.171875" xlink:href="#k"/>
  <use x="109.65625" y="573.171875" xlink:href="#e"/>
 </g>
</svg>
