<?xml version="1.0" encoding="UTF-8"?>
<svg width="700pt" height="700pt" version="1.1" viewBox="0 0 700 700" xmlns="http://www.w3.org/2000/svg" xmlns:xlink="http://www.w3.org/1999/xlink">
 <defs>
  <symbol id="g" overflow="visible">
   <path d="m2.2031-0.125c-0.11719 0.054688-0.23438 0.09375-0.35938 0.125-0.11719 0.03125-0.24219 0.046875-0.375 0.046875-0.40625 0-0.72656-0.10938-0.95312-0.32812-0.23047-0.22656-0.34375-0.53516-0.34375-0.92188 0-0.38281 0.11328-0.6875 0.34375-0.90625 0.22656-0.22656 0.54688-0.34375 0.95312-0.34375 0.13281 0 0.25781 0.015625 0.375 0.046875 0.125 0.03125 0.24219 0.078125 0.35938 0.14062v0.5c-0.11719-0.082031-0.23047-0.14062-0.34375-0.17188-0.10547-0.039062-0.21875-0.0625-0.34375-0.0625-0.21875 0-0.39062 0.074219-0.51562 0.21875-0.125 0.13672-0.1875 0.32812-0.1875 0.57812s0.0625 0.44922 0.1875 0.59375c0.125 0.13672 0.29688 0.20312 0.51562 0.20312 0.125 0 0.23828-0.015625 0.34375-0.046875 0.11328-0.039063 0.22656-0.097656 0.34375-0.17188z"/>
  </symbol>
  <symbol id="a" overflow="visible">
   <path d="m1.6094-1.3125c-0.042969-0.019531-0.089844-0.035156-0.14062-0.046875-0.054688-0.007813-0.10547-0.015625-0.15625-0.015625-0.14844 0-0.26172 0.046875-0.34375 0.14062-0.074219 0.09375-0.10938 0.23047-0.10938 0.40625v0.82812h-0.57812v-1.7969h0.57812v0.29688c0.070313-0.125 0.15625-0.21094 0.25-0.26562 0.09375-0.050781 0.20703-0.078125 0.34375-0.078125h0.0625c0.019531 0 0.050781 0.007812 0.09375 0.015625z"/>
  </symbol>
  <symbol id="b" overflow="visible">
   <path d="m2.0781-0.90625v0.17188h-1.3438c0.007813 0.125 0.054687 0.22656 0.14062 0.29688 0.082031 0.0625 0.20312 0.09375 0.35938 0.09375 0.11328 0 0.23438-0.015625 0.35938-0.046875 0.13281-0.03125 0.26562-0.082031 0.39062-0.15625v0.4375c-0.13672 0.054688-0.27344 0.089844-0.40625 0.10938-0.13672 0.03125-0.27344 0.046875-0.40625 0.046875-0.32422 0-0.57812-0.082031-0.76562-0.25-0.17969-0.16406-0.26562-0.39844-0.26562-0.70312 0-0.28906 0.085937-0.51953 0.26562-0.6875 0.17578-0.16406 0.42188-0.25 0.73438-0.25 0.28125 0 0.50391 0.089844 0.67188 0.26562 0.17578 0.16797 0.26562 0.39062 0.26562 0.67188zm-0.59375-0.1875c0-0.11328-0.03125-0.20312-0.09375-0.26562-0.0625-0.070313-0.14844-0.10938-0.25-0.10938-0.11719 0-0.21094 0.03125-0.28125 0.09375-0.0625 0.0625-0.10547 0.15625-0.125 0.28125z"/>
  </symbol>
  <symbol id="c" overflow="visible">
   <path d="m1.0781-0.8125c-0.11719 0-0.20312 0.023438-0.26562 0.0625-0.0625 0.042969-0.09375 0.10547-0.09375 0.1875 0 0.074219 0.023438 0.13281 0.078125 0.17188 0.050781 0.03125 0.11719 0.046875 0.20312 0.046875 0.10156 0 0.19141-0.035156 0.26562-0.10938 0.082031-0.070313 0.125-0.17188 0.125-0.29688v-0.0625zm0.89062-0.21875v1.0312h-0.57812v-0.26562c-0.085937 0.10547-0.17188 0.18359-0.26562 0.23438s-0.21484 0.078125-0.35938 0.078125c-0.1875 0-0.33984-0.050781-0.45312-0.15625-0.11719-0.11328-0.17188-0.25781-0.17188-0.4375 0-0.20703 0.070313-0.35938 0.21875-0.45312 0.14453-0.10156 0.375-0.15625 0.6875-0.15625h0.34375v-0.046875c0-0.09375-0.039063-0.16016-0.10938-0.20312-0.074219-0.039062-0.1875-0.0625-0.34375-0.0625-0.125 0-0.24219 0.015625-0.34375 0.046875-0.10547 0.023437-0.20312 0.058594-0.29688 0.10938v-0.4375c0.125-0.03125 0.25-0.050781 0.375-0.0625 0.125-0.019531 0.25-0.03125 0.375-0.03125 0.32031 0 0.55469 0.0625 0.70312 0.1875 0.14453 0.125 0.21875 0.33594 0.21875 0.625z"/>
  </symbol>
  <symbol id="e" overflow="visible">
   <path d="m0.90625-2.3125v0.51562h0.59375v0.40625h-0.59375v0.76562c0 0.085938 0.015625 0.14062 0.046875 0.17188s0.097656 0.046875 0.20312 0.046875h0.29688v0.40625h-0.5c-0.23047 0-0.39062-0.046875-0.48438-0.14062s-0.14062-0.25391-0.14062-0.48438v-0.76562h-0.28125v-0.40625h0.28125v-0.51562z"/>
  </symbol>
  <symbol id="j" overflow="visible">
   <path d="m1.5-1.5312v-0.96875h0.57812v2.5h-0.57812v-0.26562c-0.074219 0.11719-0.16406 0.19922-0.26562 0.25-0.09375 0.039062-0.20312 0.0625-0.32812 0.0625-0.21875 0-0.40234-0.085938-0.54688-0.26562-0.14844-0.17578-0.21875-0.40625-0.21875-0.6875 0-0.26953 0.070313-0.49219 0.21875-0.67188 0.14453-0.17578 0.32812-0.26562 0.54688-0.26562 0.125 0 0.23438 0.027344 0.32812 0.078125 0.10156 0.042969 0.19141 0.12109 0.26562 0.23438zm-0.375 1.1562c0.125 0 0.21875-0.039062 0.28125-0.125 0.0625-0.09375 0.09375-0.22656 0.09375-0.40625 0-0.16406-0.03125-0.28906-0.09375-0.375-0.0625-0.09375-0.15625-0.14062-0.28125-0.14062s-0.21875 0.046875-0.28125 0.14062c-0.0625 0.085938-0.09375 0.21094-0.09375 0.375 0 0.17969 0.03125 0.3125 0.09375 0.40625 0.0625 0.085938 0.15625 0.125 0.28125 0.125z"/>
  </symbol>
  <symbol id="f" overflow="visible">
   <path d="m1.2344-0.375c0.125 0 0.21875-0.039062 0.28125-0.125 0.0625-0.09375 0.09375-0.22656 0.09375-0.40625 0-0.16406-0.03125-0.28906-0.09375-0.375-0.0625-0.09375-0.15625-0.14062-0.28125-0.14062s-0.21875 0.046875-0.28125 0.14062c-0.0625 0.085938-0.09375 0.21094-0.09375 0.375 0 0.17969 0.03125 0.3125 0.09375 0.40625 0.0625 0.085938 0.15625 0.125 0.28125 0.125zm-0.375-1.1562c0.070313-0.11328 0.15625-0.19141 0.25-0.23438 0.10156-0.050781 0.21875-0.078125 0.34375-0.078125 0.21875 0 0.39844 0.089844 0.54688 0.26562 0.14453 0.17969 0.21875 0.40234 0.21875 0.67188 0 0.28125-0.074219 0.51172-0.21875 0.6875-0.14844 0.17969-0.32812 0.26562-0.54688 0.26562-0.125 0-0.24219-0.027344-0.34375-0.078125-0.09375-0.050781-0.17969-0.12891-0.25-0.23438v0.26562h-0.57812v-2.5h0.57812z"/>
  </symbol>
  <symbol id="i" overflow="visible">
   <path d="m0.046875-1.7969h0.5625l0.48438 1.2188 0.42188-1.2188h0.57812l-0.76562 1.9688c-0.074219 0.19531-0.16406 0.33594-0.26562 0.42188-0.10547 0.082031-0.24219 0.125-0.40625 0.125h-0.32812v-0.39062h0.1875c0.09375 0 0.16016-0.015625 0.20312-0.046875 0.050781-0.03125 0.085938-0.085938 0.10938-0.15625l0.015625-0.0625z"/>
  </symbol>
  <symbol id="h" overflow="visible">
   <path d="m1.7656-0.4375h-0.96875l-0.15625 0.4375h-0.625l0.89062-2.4062h0.73438l0.89062 2.4062h-0.625zm-0.8125-0.45312h0.65625l-0.32812-0.95312z"/>
  </symbol>
  <symbol id="u" overflow="visible">
   <path d="m0.28125-2.5h0.57812v2.5h-0.57812z"/>
  </symbol>
  <symbol id="t" overflow="visible">
   <path d="m0.046875-1.7969h0.57812l0.45312 1.2344 0.4375-1.2344h0.57812l-0.70312 1.7969h-0.625z"/>
  </symbol>
  <symbol id="d" overflow="visible">
   <path d="m1.1406-1.4375c-0.13672 0-0.24219 0.046875-0.3125 0.14062-0.0625 0.09375-0.09375 0.22656-0.09375 0.39062 0 0.17969 0.03125 0.3125 0.09375 0.40625 0.070313 0.09375 0.17578 0.14062 0.3125 0.14062 0.125 0 0.21875-0.046875 0.28125-0.14062s0.09375-0.22656 0.09375-0.40625c0-0.16406-0.03125-0.29688-0.09375-0.39062s-0.15625-0.14062-0.28125-0.14062zm0-0.40625c0.30078 0 0.53906 0.085938 0.71875 0.25 0.17578 0.16797 0.26562 0.39844 0.26562 0.6875 0 0.30469-0.089844 0.53906-0.26562 0.70312-0.17969 0.16797-0.41797 0.25-0.71875 0.25-0.3125 0-0.55859-0.082031-0.73438-0.25-0.17969-0.16406-0.26562-0.39844-0.26562-0.70312 0-0.28906 0.085937-0.51953 0.26562-0.6875 0.17578-0.16406 0.42188-0.25 0.73438-0.25z"/>
  </symbol>
  <symbol id="s" overflow="visible">
   <path d="m1.4688-2.5v0.375h-0.32812c-0.085937 0-0.14062 0.015625-0.17188 0.046875s-0.046875 0.085937-0.046875 0.15625v0.125h0.5v0.40625h-0.5v1.3906h-0.57812v-1.3906h-0.28125v-0.40625h0.28125v-0.125c0-0.19531 0.050781-0.34375 0.15625-0.4375 0.11328-0.09375 0.28516-0.14062 0.51562-0.14062z"/>
  </symbol>
  <symbol id="r" overflow="visible">
   <path d="m1.9531-1.5c0.070313-0.11328 0.15625-0.19531 0.25-0.25 0.10156-0.0625 0.21094-0.09375 0.32812-0.09375 0.20703 0 0.36328 0.0625 0.46875 0.1875 0.11328 0.125 0.17188 0.3125 0.17188 0.5625v1.0938h-0.57812v-0.9375-0.046875-0.0625c0-0.125-0.023438-0.21094-0.0625-0.26562-0.03125-0.0625-0.089844-0.09375-0.17188-0.09375-0.10547 0-0.1875 0.046875-0.25 0.14062-0.0625 0.085937-0.09375 0.21094-0.09375 0.375v0.89062h-0.57812v-0.9375c0-0.19531-0.023438-0.32031-0.0625-0.375-0.03125-0.0625-0.089844-0.09375-0.17188-0.09375-0.11719 0-0.20312 0.046875-0.26562 0.14062-0.054688 0.085937-0.078125 0.21094-0.078125 0.375v0.89062h-0.57812v-1.7969h0.57812v0.26562c0.0625-0.10156 0.14062-0.17969 0.23438-0.23438 0.09375-0.050781 0.19531-0.078125 0.3125-0.078125 0.125 0 0.23438 0.03125 0.32812 0.09375 0.09375 0.054688 0.16406 0.13672 0.21875 0.25z"/>
  </symbol>
  <symbol id="q" overflow="visible">
   <path d="m2.0938-1.0938v1.0938h-0.57812v-0.84375c0-0.15625-0.007813-0.25781-0.015625-0.3125-0.011719-0.0625-0.023438-0.10938-0.03125-0.14062-0.03125-0.03125-0.070312-0.054687-0.10938-0.078125-0.03125-0.019531-0.074219-0.03125-0.125-0.03125-0.11719 0-0.21094 0.046875-0.28125 0.14062-0.0625 0.085937-0.09375 0.21094-0.09375 0.375v0.89062h-0.57812v-2.5h0.57812v0.96875c0.082031-0.11328 0.17188-0.19141 0.26562-0.23438 0.10156-0.050781 0.21094-0.078125 0.32812-0.078125 0.20703 0 0.36328 0.0625 0.46875 0.1875 0.11328 0.125 0.17188 0.3125 0.17188 0.5625z"/>
  </symbol>
  <symbol id="p" overflow="visible">
   <path d="m0.29688-2.4062h0.70312l0.875 1.6562v-1.6562h0.57812v2.4062h-0.6875l-0.875-1.6562v1.6562h-0.59375z"/>
  </symbol>
  <symbol id="o" overflow="visible">
   <path d="m0.25-0.70312v-1.0938h0.59375v0.17188c0 0.10547-0.007812 0.23047-0.015625 0.375v0.29688c0 0.14844 0.003906 0.25 0.015625 0.3125 0.007812 0.0625 0.023438 0.10938 0.046875 0.14062 0.019531 0.03125 0.046875 0.058594 0.078125 0.078125 0.039062 0.023437 0.085938 0.03125 0.14062 0.03125 0.11328 0 0.20703-0.046875 0.28125-0.14062 0.070313-0.09375 0.10938-0.21875 0.10938-0.375v-0.89062h0.5625v1.7969h-0.5625v-0.26562c-0.09375 0.10547-0.1875 0.18359-0.28125 0.23438s-0.20312 0.078125-0.32812 0.078125c-0.21094 0-0.37109-0.0625-0.48438-0.1875-0.10547-0.13281-0.15625-0.32031-0.15625-0.5625z"/>
  </symbol>
  <symbol id="n" overflow="visible">
   <path d="m2.0938-1.0938v1.0938h-0.57812v-0.84375c0-0.15625-0.007813-0.25781-0.015625-0.3125-0.011719-0.0625-0.023438-0.10938-0.03125-0.14062-0.03125-0.03125-0.070312-0.054687-0.10938-0.078125-0.03125-0.019531-0.074219-0.03125-0.125-0.03125-0.11719 0-0.21094 0.046875-0.28125 0.14062-0.0625 0.085937-0.09375 0.21094-0.09375 0.375v0.89062h-0.57812v-1.7969h0.57812v0.26562c0.082031-0.11328 0.17188-0.19141 0.26562-0.23438 0.10156-0.050781 0.21094-0.078125 0.32812-0.078125 0.20703 0 0.36328 0.0625 0.46875 0.1875 0.11328 0.125 0.17188 0.3125 0.17188 0.5625z"/>
  </symbol>
  <symbol id="m" overflow="visible">
   <path d="m0.29688-2.4062h1.0312c0.3125 0 0.54688 0.070312 0.70312 0.20312 0.16406 0.13672 0.25 0.32812 0.25 0.57812 0 0.26172-0.085938 0.46094-0.25 0.59375-0.15625 0.13672-0.39062 0.20312-0.70312 0.20312h-0.40625v0.82812h-0.625zm0.625 0.45312v0.67188h0.34375c0.125 0 0.21875-0.023438 0.28125-0.078125 0.0625-0.0625 0.09375-0.14844 0.09375-0.26562 0-0.10156-0.03125-0.17969-0.09375-0.23438-0.0625-0.0625-0.15625-0.09375-0.28125-0.09375z"/>
  </symbol>
  <symbol id="l" overflow="visible">
   <path d="m0.28125-1.7969h0.57812v1.7656c0 0.23828-0.0625 0.42188-0.1875 0.54688-0.11719 0.13281-0.28125 0.20312-0.5 0.20312h-0.28125v-0.39062h0.09375c0.11328 0 0.19141-0.027344 0.23438-0.078125 0.039062-0.042969 0.0625-0.13672 0.0625-0.28125zm0-0.70312h0.57812v0.46875h-0.57812z"/>
  </symbol>
  <symbol id="k" overflow="visible">
   <path d="m1.7344-1.75v0.46875c-0.085937-0.050781-0.16797-0.085938-0.25-0.10938-0.074219-0.03125-0.15234-0.046875-0.23438-0.046875-0.15625 0-0.28125 0.046875-0.375 0.14062s-0.14062 0.22656-0.14062 0.39062c0 0.17969 0.046875 0.3125 0.14062 0.40625s0.21875 0.14062 0.375 0.14062c0.09375 0 0.17578-0.015625 0.25-0.046875 0.082031-0.03125 0.16016-0.070312 0.23438-0.125v0.48438c-0.09375 0.03125-0.1875 0.050781-0.28125 0.0625-0.09375 0.019531-0.18359 0.03125-0.26562 0.03125-0.33594 0-0.59375-0.082031-0.78125-0.25-0.17969-0.16406-0.26562-0.39844-0.26562-0.70312 0-0.28906 0.085937-0.51953 0.26562-0.6875 0.1875-0.16406 0.44531-0.25 0.78125-0.25 0.09375 0 0.17969 0.011719 0.26562 0.03125 0.09375 0.011719 0.1875 0.03125 0.28125 0.0625z"/>
  </symbol>
 </defs>
 <g>
  <path d="m526.68 363.89c-0.72266 2.043-1.4492 4.082-2.1719 6.0586-5.9922 16.727-11.656 32.598-29.699 51.562l15.078 1.1211c0.39453 0 0.72266 0.26172 0.92188 0.59375 0.19922 0.32812 0.19922 0.72266 0 1.0547-21.469 39.773-60.32 60.453-108.79 57.555-13.039-0.78906-26.539-12.578-26.668-30.949l-11.328-277.04-12.445 0.72266v320.89l27.527 28.777c6.5195-2.1719 13.301-4.0156 20.48-5.9258 10.867-2.8984 22.125-5.9258 34.176-10.734 39.246-15.805 67.496-41.816 86.332-79.484 0.13281-0.32812 0.46094-0.52734 0.78906-0.59375h0.26172c0.26172 0 0.52734 0.066406 0.72266 0.26172l10.734 8.8242c4.4766-23.637 2.1719-52.148-5.9258-72.695zm-176.29 133.68h-0.066406l-26.273 27.461c9.418 3.3594 18.109 7.7031 26.34 14.422 8.1641-6.7812 16.922-11.062 26.34-14.422l-26.207-27.461h-0.13281zm103.71-343.94c0.59375-1.8438 0.32812-3.8867-0.85547-5.4648-1.1836-1.582-2.9648-2.5039-4.9375-2.5039h-45.109v23.707l46.559-2.6328zm-115.5-45.375c0.52734 0.13281 0.85547 0.59375 0.85547 1.1211l-1.3828 34.047h11.195v-34.836c0-0.59375 0.52734-1.1211 1.1211-1.1211s1.1211 0.52734 1.1211 1.1211v34.836h11.195l-1.3828-34.047c0-0.52734 0.32812-0.98828 0.85547-1.1211 19.492-5.2695 33.125-23.047 33.125-43.332 0-24.762-20.152-44.844-44.844-44.844-24.762 0-44.844 20.152-44.844 44.844-0.074219 20.219 13.555 38.066 32.984 43.332zm11.852-76.582c18.309 0 33.254 14.883 33.254 33.254 0 18.309-14.883 33.188-33.254 33.188-18.309 0-33.254-14.883-33.254-33.188 0-18.309 14.883-33.254 33.254-33.254zm38.852 111.68v30.027c0 1.9766 1.582 3.5547 3.5547 3.5547h4.543c1.9766 0 3.5547-1.582 3.5547-3.5547v-30.027c0-1.9766-1.582-3.5547-3.5547-3.5547h-4.543c-1.9727-0.003907-3.5547 1.6445-3.5547 3.5547zm-75.531 26.867 36.68 2.1055 36.68-2.1055v-24.629h-73.359zm35.496 4.2812-12.445-0.72266-11.262 277.04c-0.13281 18.371-13.695 30.227-26.668 30.949-48.465 2.832-87.383-17.781-108.79-57.555-0.19922-0.32812-0.19922-0.72266 0-1.0547 0.19922-0.32812 0.52734-0.52734 0.92187-0.59375l15.078-1.1211c-18.043-18.965-23.707-34.77-29.699-51.562-0.72266-1.9766-1.4492-4.0156-2.1719-6.0586-8.1641 20.547-10.469 49.059-5.8594 72.504l10.734-8.8242c0.26172-0.19922 0.59375-0.32812 0.92188-0.26172 0.32812 0.066406 0.59375 0.26172 0.78906 0.59375 18.832 37.734 47.082 63.742 86.332 79.484 12.051 4.8711 23.312 7.8359 34.176 10.734 7.1797 1.9102 14.027 3.7539 20.48 5.9258l27.527-28.777-0.007812-320.7zm-98.188-7.8398 46.559 2.6328v-23.707h-45.176c-1.9766 0-3.7539 0.92188-4.9375 2.5039-1.1211 1.582-1.4492 3.5547-0.85547 5.4648zm52.352 10.273h4.543c1.9766 0 3.5547-1.582 3.5547-3.5547v-30.027c0-1.9766-1.582-3.5547-3.5547-3.5547h-4.543c-1.9766 0-3.5547 1.582-3.5547 3.5547v30.027c0 1.9766 1.582 3.5547 3.5547 3.5547z"/>
  <use x="70" y="569.878906" xlink:href="#g"/>
  <use x="72.417969" y="569.878906" xlink:href="#a"/>
  <use x="74.039062" y="569.878906" xlink:href="#b"/>
  <use x="76.273438" y="569.878906" xlink:href="#c"/>
  <use x="78.496094" y="569.878906" xlink:href="#e"/>
  <use x="80.070312" y="569.878906" xlink:href="#b"/>
  <use x="82.300781" y="569.878906" xlink:href="#j"/>
  <use x="85.804688" y="569.878906" xlink:href="#f"/>
  <use x="88.164062" y="569.878906" xlink:href="#i"/>
  <use x="91.453125" y="569.878906" xlink:href="#h"/>
  <use x="94.003906" y="569.878906" xlink:href="#u"/>
  <use x="95.132812" y="569.878906" xlink:href="#t"/>
  <use x="97.277344" y="569.878906" xlink:href="#c"/>
  <use x="99.5" y="569.878906" xlink:href="#a"/>
  <use x="101.125" y="569.878906" xlink:href="#d"/>
  <use x="104.53125" y="569.878906" xlink:href="#g"/>
  <use x="106.949219" y="569.878906" xlink:href="#c"/>
  <use x="109.171875" y="569.878906" xlink:href="#f"/>
  <use x="111.527344" y="569.878906" xlink:href="#a"/>
  <use x="113.152344" y="569.878906" xlink:href="#b"/>
  <use x="115.382812" y="569.878906" xlink:href="#a"/>
  <use x="117.007812" y="569.878906" xlink:href="#c"/>
  <use x="70" y="573.171875" xlink:href="#s"/>
  <use x="71.433594" y="573.171875" xlink:href="#a"/>
  <use x="73.054688" y="573.171875" xlink:href="#d"/>
  <use x="75.316406" y="573.171875" xlink:href="#r"/>
  <use x="79.894531" y="573.171875" xlink:href="#e"/>
  <use x="81.46875" y="573.171875" xlink:href="#q"/>
  <use x="83.8125" y="573.171875" xlink:href="#b"/>
  <use x="87.191406" y="573.171875" xlink:href="#p"/>
  <use x="89.949219" y="573.171875" xlink:href="#d"/>
  <use x="92.210938" y="573.171875" xlink:href="#o"/>
  <use x="94.554688" y="573.171875" xlink:href="#n"/>
  <use x="98.042969" y="573.171875" xlink:href="#m"/>
  <use x="100.457031" y="573.171875" xlink:href="#a"/>
  <use x="102.082031" y="573.171875" xlink:href="#d"/>
  <use x="104.34375" y="573.171875" xlink:href="#l"/>
  <use x="105.472656" y="573.171875" xlink:href="#b"/>
  <use x="107.707031" y="573.171875" xlink:href="#k"/>
  <use x="109.65625" y="573.171875" xlink:href="#e"/>
 </g>
</svg>
