<?xml version="1.0" encoding="UTF-8"?>
<svg width="700pt" height="700pt" version="1.1" viewBox="0 0 700 700" xmlns="http://www.w3.org/2000/svg" xmlns:xlink="http://www.w3.org/1999/xlink">
 <defs>
  <symbol id="g" overflow="visible">
   <path d="m2.2031-0.125c-0.11719 0.054688-0.23438 0.09375-0.35938 0.125-0.11719 0.03125-0.24219 0.046875-0.375 0.046875-0.40625 0-0.72656-0.10938-0.95312-0.32812-0.23047-0.22656-0.34375-0.53516-0.34375-0.92188 0-0.38281 0.11328-0.6875 0.34375-0.90625 0.22656-0.22656 0.54688-0.34375 0.95312-0.34375 0.13281 0 0.25781 0.015625 0.375 0.046875 0.125 0.03125 0.24219 0.078125 0.35938 0.14062v0.5c-0.11719-0.082031-0.23047-0.14062-0.34375-0.17188-0.10547-0.039062-0.21875-0.0625-0.34375-0.0625-0.21875 0-0.39062 0.074219-0.51562 0.21875-0.125 0.13672-0.1875 0.32812-0.1875 0.57812s0.0625 0.44922 0.1875 0.59375c0.125 0.13672 0.29688 0.20312 0.51562 0.20312 0.125 0 0.23828-0.015625 0.34375-0.046875 0.11328-0.039063 0.22656-0.097656 0.34375-0.17188z"/>
  </symbol>
  <symbol id="a" overflow="visible">
   <path d="m1.6094-1.3125c-0.042969-0.019531-0.089844-0.035156-0.14062-0.046875-0.054688-0.007813-0.10547-0.015625-0.15625-0.015625-0.14844 0-0.26172 0.046875-0.34375 0.14062-0.074219 0.09375-0.10938 0.23047-0.10938 0.40625v0.82812h-0.57812v-1.7969h0.57812v0.29688c0.070313-0.125 0.15625-0.21094 0.25-0.26562 0.09375-0.050781 0.20703-0.078125 0.34375-0.078125h0.0625c0.019531 0 0.050781 0.007812 0.09375 0.015625z"/>
  </symbol>
  <symbol id="b" overflow="visible">
   <path d="m2.0781-0.90625v0.17188h-1.3438c0.007813 0.125 0.054687 0.22656 0.14062 0.29688 0.082031 0.0625 0.20312 0.09375 0.35938 0.09375 0.11328 0 0.23438-0.015625 0.35938-0.046875 0.13281-0.03125 0.26562-0.082031 0.39062-0.15625v0.4375c-0.13672 0.054688-0.27344 0.089844-0.40625 0.10938-0.13672 0.03125-0.27344 0.046875-0.40625 0.046875-0.32422 0-0.57812-0.082031-0.76562-0.25-0.17969-0.16406-0.26562-0.39844-0.26562-0.70312 0-0.28906 0.085937-0.51953 0.26562-0.6875 0.17578-0.16406 0.42188-0.25 0.73438-0.25 0.28125 0 0.50391 0.089844 0.67188 0.26562 0.17578 0.16797 0.26562 0.39062 0.26562 0.67188zm-0.59375-0.1875c0-0.11328-0.03125-0.20312-0.09375-0.26562-0.0625-0.070313-0.14844-0.10938-0.25-0.10938-0.11719 0-0.21094 0.03125-0.28125 0.09375-0.0625 0.0625-0.10547 0.15625-0.125 0.28125z"/>
  </symbol>
  <symbol id="c" overflow="visible">
   <path d="m1.0781-0.8125c-0.11719 0-0.20312 0.023438-0.26562 0.0625-0.0625 0.042969-0.09375 0.10547-0.09375 0.1875 0 0.074219 0.023438 0.13281 0.078125 0.17188 0.050781 0.03125 0.11719 0.046875 0.20312 0.046875 0.10156 0 0.19141-0.035156 0.26562-0.10938 0.082031-0.070313 0.125-0.17188 0.125-0.29688v-0.0625zm0.89062-0.21875v1.0312h-0.57812v-0.26562c-0.085937 0.10547-0.17188 0.18359-0.26562 0.23438s-0.21484 0.078125-0.35938 0.078125c-0.1875 0-0.33984-0.050781-0.45312-0.15625-0.11719-0.11328-0.17188-0.25781-0.17188-0.4375 0-0.20703 0.070313-0.35938 0.21875-0.45312 0.14453-0.10156 0.375-0.15625 0.6875-0.15625h0.34375v-0.046875c0-0.09375-0.039063-0.16016-0.10938-0.20312-0.074219-0.039062-0.1875-0.0625-0.34375-0.0625-0.125 0-0.24219 0.015625-0.34375 0.046875-0.10547 0.023437-0.20312 0.058594-0.29688 0.10938v-0.4375c0.125-0.03125 0.25-0.050781 0.375-0.0625 0.125-0.019531 0.25-0.03125 0.375-0.03125 0.32031 0 0.55469 0.0625 0.70312 0.1875 0.14453 0.125 0.21875 0.33594 0.21875 0.625z"/>
  </symbol>
  <symbol id="e" overflow="visible">
   <path d="m0.90625-2.3125v0.51562h0.59375v0.40625h-0.59375v0.76562c0 0.085938 0.015625 0.14062 0.046875 0.17188s0.097656 0.046875 0.20312 0.046875h0.29688v0.40625h-0.5c-0.23047 0-0.39062-0.046875-0.48438-0.14062s-0.14062-0.25391-0.14062-0.48438v-0.76562h-0.28125v-0.40625h0.28125v-0.51562z"/>
  </symbol>
  <symbol id="j" overflow="visible">
   <path d="m1.5-1.5312v-0.96875h0.57812v2.5h-0.57812v-0.26562c-0.074219 0.11719-0.16406 0.19922-0.26562 0.25-0.09375 0.039062-0.20312 0.0625-0.32812 0.0625-0.21875 0-0.40234-0.085938-0.54688-0.26562-0.14844-0.17578-0.21875-0.40625-0.21875-0.6875 0-0.26953 0.070313-0.49219 0.21875-0.67188 0.14453-0.17578 0.32812-0.26562 0.54688-0.26562 0.125 0 0.23438 0.027344 0.32812 0.078125 0.10156 0.042969 0.19141 0.12109 0.26562 0.23438zm-0.375 1.1562c0.125 0 0.21875-0.039062 0.28125-0.125 0.0625-0.09375 0.09375-0.22656 0.09375-0.40625 0-0.16406-0.03125-0.28906-0.09375-0.375-0.0625-0.09375-0.15625-0.14062-0.28125-0.14062s-0.21875 0.046875-0.28125 0.14062c-0.0625 0.085938-0.09375 0.21094-0.09375 0.375 0 0.17969 0.03125 0.3125 0.09375 0.40625 0.0625 0.085938 0.15625 0.125 0.28125 0.125z"/>
  </symbol>
  <symbol id="f" overflow="visible">
   <path d="m1.2344-0.375c0.125 0 0.21875-0.039062 0.28125-0.125 0.0625-0.09375 0.09375-0.22656 0.09375-0.40625 0-0.16406-0.03125-0.28906-0.09375-0.375-0.0625-0.09375-0.15625-0.14062-0.28125-0.14062s-0.21875 0.046875-0.28125 0.14062c-0.0625 0.085938-0.09375 0.21094-0.09375 0.375 0 0.17969 0.03125 0.3125 0.09375 0.40625 0.0625 0.085938 0.15625 0.125 0.28125 0.125zm-0.375-1.1562c0.070313-0.11328 0.15625-0.19141 0.25-0.23438 0.10156-0.050781 0.21875-0.078125 0.34375-0.078125 0.21875 0 0.39844 0.089844 0.54688 0.26562 0.14453 0.17969 0.21875 0.40234 0.21875 0.67188 0 0.28125-0.074219 0.51172-0.21875 0.6875-0.14844 0.17969-0.32812 0.26562-0.54688 0.26562-0.125 0-0.24219-0.027344-0.34375-0.078125-0.09375-0.050781-0.17969-0.12891-0.25-0.23438v0.26562h-0.57812v-2.5h0.57812z"/>
  </symbol>
  <symbol id="i" overflow="visible">
   <path d="m0.046875-1.7969h0.5625l0.48438 1.2188 0.42188-1.2188h0.57812l-0.76562 1.9688c-0.074219 0.19531-0.16406 0.33594-0.26562 0.42188-0.10547 0.082031-0.24219 0.125-0.40625 0.125h-0.32812v-0.39062h0.1875c0.09375 0 0.16016-0.015625 0.20312-0.046875 0.050781-0.03125 0.085938-0.085938 0.10938-0.15625l0.015625-0.0625z"/>
  </symbol>
  <symbol id="h" overflow="visible">
   <path d="m1.7656-0.4375h-0.96875l-0.15625 0.4375h-0.625l0.89062-2.4062h0.73438l0.89062 2.4062h-0.625zm-0.8125-0.45312h0.65625l-0.32812-0.95312z"/>
  </symbol>
  <symbol id="u" overflow="visible">
   <path d="m0.28125-2.5h0.57812v2.5h-0.57812z"/>
  </symbol>
  <symbol id="t" overflow="visible">
   <path d="m0.046875-1.7969h0.57812l0.45312 1.2344 0.4375-1.2344h0.57812l-0.70312 1.7969h-0.625z"/>
  </symbol>
  <symbol id="d" overflow="visible">
   <path d="m1.1406-1.4375c-0.13672 0-0.24219 0.046875-0.3125 0.14062-0.0625 0.09375-0.09375 0.22656-0.09375 0.39062 0 0.17969 0.03125 0.3125 0.09375 0.40625 0.070313 0.09375 0.17578 0.14062 0.3125 0.14062 0.125 0 0.21875-0.046875 0.28125-0.14062s0.09375-0.22656 0.09375-0.40625c0-0.16406-0.03125-0.29688-0.09375-0.39062s-0.15625-0.14062-0.28125-0.14062zm0-0.40625c0.30078 0 0.53906 0.085938 0.71875 0.25 0.17578 0.16797 0.26562 0.39844 0.26562 0.6875 0 0.30469-0.089844 0.53906-0.26562 0.70312-0.17969 0.16797-0.41797 0.25-0.71875 0.25-0.3125 0-0.55859-0.082031-0.73438-0.25-0.17969-0.16406-0.26562-0.39844-0.26562-0.70312 0-0.28906 0.085937-0.51953 0.26562-0.6875 0.17578-0.16406 0.42188-0.25 0.73438-0.25z"/>
  </symbol>
  <symbol id="s" overflow="visible">
   <path d="m1.4688-2.5v0.375h-0.32812c-0.085937 0-0.14062 0.015625-0.17188 0.046875s-0.046875 0.085937-0.046875 0.15625v0.125h0.5v0.40625h-0.5v1.3906h-0.57812v-1.3906h-0.28125v-0.40625h0.28125v-0.125c0-0.19531 0.050781-0.34375 0.15625-0.4375 0.11328-0.09375 0.28516-0.14062 0.51562-0.14062z"/>
  </symbol>
  <symbol id="r" overflow="visible">
   <path d="m1.9531-1.5c0.070313-0.11328 0.15625-0.19531 0.25-0.25 0.10156-0.0625 0.21094-0.09375 0.32812-0.09375 0.20703 0 0.36328 0.0625 0.46875 0.1875 0.11328 0.125 0.17188 0.3125 0.17188 0.5625v1.0938h-0.57812v-0.9375-0.046875-0.0625c0-0.125-0.023438-0.21094-0.0625-0.26562-0.03125-0.0625-0.089844-0.09375-0.17188-0.09375-0.10547 0-0.1875 0.046875-0.25 0.14062-0.0625 0.085937-0.09375 0.21094-0.09375 0.375v0.89062h-0.57812v-0.9375c0-0.19531-0.023438-0.32031-0.0625-0.375-0.03125-0.0625-0.089844-0.09375-0.17188-0.09375-0.11719 0-0.20312 0.046875-0.26562 0.14062-0.054688 0.085937-0.078125 0.21094-0.078125 0.375v0.89062h-0.57812v-1.7969h0.57812v0.26562c0.0625-0.10156 0.14062-0.17969 0.23438-0.23438 0.09375-0.050781 0.19531-0.078125 0.3125-0.078125 0.125 0 0.23438 0.03125 0.32812 0.09375 0.09375 0.054688 0.16406 0.13672 0.21875 0.25z"/>
  </symbol>
  <symbol id="q" overflow="visible">
   <path d="m2.0938-1.0938v1.0938h-0.57812v-0.84375c0-0.15625-0.007813-0.25781-0.015625-0.3125-0.011719-0.0625-0.023438-0.10938-0.03125-0.14062-0.03125-0.03125-0.070312-0.054687-0.10938-0.078125-0.03125-0.019531-0.074219-0.03125-0.125-0.03125-0.11719 0-0.21094 0.046875-0.28125 0.14062-0.0625 0.085937-0.09375 0.21094-0.09375 0.375v0.89062h-0.57812v-2.5h0.57812v0.96875c0.082031-0.11328 0.17188-0.19141 0.26562-0.23438 0.10156-0.050781 0.21094-0.078125 0.32812-0.078125 0.20703 0 0.36328 0.0625 0.46875 0.1875 0.11328 0.125 0.17188 0.3125 0.17188 0.5625z"/>
  </symbol>
  <symbol id="p" overflow="visible">
   <path d="m0.29688-2.4062h0.70312l0.875 1.6562v-1.6562h0.57812v2.4062h-0.6875l-0.875-1.6562v1.6562h-0.59375z"/>
  </symbol>
  <symbol id="o" overflow="visible">
   <path d="m0.25-0.70312v-1.0938h0.59375v0.17188c0 0.10547-0.007812 0.23047-0.015625 0.375v0.29688c0 0.14844 0.003906 0.25 0.015625 0.3125 0.007812 0.0625 0.023438 0.10938 0.046875 0.14062 0.019531 0.03125 0.046875 0.058594 0.078125 0.078125 0.039062 0.023437 0.085938 0.03125 0.14062 0.03125 0.11328 0 0.20703-0.046875 0.28125-0.14062 0.070313-0.09375 0.10938-0.21875 0.10938-0.375v-0.89062h0.5625v1.7969h-0.5625v-0.26562c-0.09375 0.10547-0.1875 0.18359-0.28125 0.23438s-0.20312 0.078125-0.32812 0.078125c-0.21094 0-0.37109-0.0625-0.48438-0.1875-0.10547-0.13281-0.15625-0.32031-0.15625-0.5625z"/>
  </symbol>
  <symbol id="n" overflow="visible">
   <path d="m2.0938-1.0938v1.0938h-0.57812v-0.84375c0-0.15625-0.007813-0.25781-0.015625-0.3125-0.011719-0.0625-0.023438-0.10938-0.03125-0.14062-0.03125-0.03125-0.070312-0.054687-0.10938-0.078125-0.03125-0.019531-0.074219-0.03125-0.125-0.03125-0.11719 0-0.21094 0.046875-0.28125 0.14062-0.0625 0.085937-0.09375 0.21094-0.09375 0.375v0.89062h-0.57812v-1.7969h0.57812v0.26562c0.082031-0.11328 0.17188-0.19141 0.26562-0.23438 0.10156-0.050781 0.21094-0.078125 0.32812-0.078125 0.20703 0 0.36328 0.0625 0.46875 0.1875 0.11328 0.125 0.17188 0.3125 0.17188 0.5625z"/>
  </symbol>
  <symbol id="m" overflow="visible">
   <path d="m0.29688-2.4062h1.0312c0.3125 0 0.54688 0.070312 0.70312 0.20312 0.16406 0.13672 0.25 0.32812 0.25 0.57812 0 0.26172-0.085938 0.46094-0.25 0.59375-0.15625 0.13672-0.39062 0.20312-0.70312 0.20312h-0.40625v0.82812h-0.625zm0.625 0.45312v0.67188h0.34375c0.125 0 0.21875-0.023438 0.28125-0.078125 0.0625-0.0625 0.09375-0.14844 0.09375-0.26562 0-0.10156-0.03125-0.17969-0.09375-0.23438-0.0625-0.0625-0.15625-0.09375-0.28125-0.09375z"/>
  </symbol>
  <symbol id="l" overflow="visible">
   <path d="m0.28125-1.7969h0.57812v1.7656c0 0.23828-0.0625 0.42188-0.1875 0.54688-0.11719 0.13281-0.28125 0.20312-0.5 0.20312h-0.28125v-0.39062h0.09375c0.11328 0 0.19141-0.027344 0.23438-0.078125 0.039062-0.042969 0.0625-0.13672 0.0625-0.28125zm0-0.70312h0.57812v0.46875h-0.57812z"/>
  </symbol>
  <symbol id="k" overflow="visible">
   <path d="m1.7344-1.75v0.46875c-0.085937-0.050781-0.16797-0.085938-0.25-0.10938-0.074219-0.03125-0.15234-0.046875-0.23438-0.046875-0.15625 0-0.28125 0.046875-0.375 0.14062s-0.14062 0.22656-0.14062 0.39062c0 0.17969 0.046875 0.3125 0.14062 0.40625s0.21875 0.14062 0.375 0.14062c0.09375 0 0.17578-0.015625 0.25-0.046875 0.082031-0.03125 0.16016-0.070312 0.23438-0.125v0.48438c-0.09375 0.03125-0.1875 0.050781-0.28125 0.0625-0.09375 0.019531-0.18359 0.03125-0.26562 0.03125-0.33594 0-0.59375-0.082031-0.78125-0.25-0.17969-0.16406-0.26562-0.39844-0.26562-0.70312 0-0.28906 0.085937-0.51953 0.26562-0.6875 0.1875-0.16406 0.44531-0.25 0.78125-0.25 0.09375 0 0.17969 0.011719 0.26562 0.03125 0.09375 0.011719 0.1875 0.03125 0.28125 0.0625z"/>
  </symbol>
 </defs>
 <g>
  <path d="m419.28 397.61c-1.582-4.082-4.2812-7.6406-7.7695-10.141-2.8984-2.1055-6.0586-3.2266-8.957-3.2266-0.72266 0-1.5156 0.066406-2.1719 0.19922-3.4258 0.72266-5.9922 3.1602-7.1797 6.7188-1.1211 3.3594-0.78906 7.375 0.78906 11.523 1.6445 4.2148 4.3477 7.8359 7.7031 10.273 2.832 2.043 6.0586 3.2266 9.0234 3.2266 0.72266 0 1.5156-0.066406 2.1719-0.19922 4.6094-0.98828 6.3867-4.6094 7.0469-6.7188 1.1875-3.4883 0.92188-7.6367-0.65625-11.656zm-15.016 12.25c-2.5039-1.7773-4.6094-4.6758-5.8594-7.8359-1.25-3.1602-1.4492-6.3867-0.59375-9.0234 0.78906-2.4375 2.3711-4.082 4.4766-4.543 0.39453-0.066406 0.85547-0.13281 1.25-0.13281 1.7109 0 3.6211 0.72266 5.4648 2.1055 2.5039 1.8438 4.6094 4.543 5.793 7.7031 1.25 3.2266 1.5156 6.5195 0.66016 9.0859-0.78906 2.4375-2.3711 4.082-4.4766 4.543-0.39453 0.066406-0.85547 0.13281-1.25 0.13281-1.7109 0.070313-3.5547-0.65234-5.4648-2.0352z"/>
  <path d="m352.9 329.91c0.98828 0 1.7773-0.19922 2.4375-0.59375 1.25-0.72266 1.9102-2.1055 1.9102-4.0156 0-2.2383-1.1211-4.9375-3.0273-7.1797-0.52734-0.66016-1.1836-1.25-1.9102-1.9766l-0.98828-0.85547v14.422l0.52734 0.066406c0.32422 0.066406 0.71875 0.13281 1.0508 0.13281z"/>
  <path d="m347.89 334.98c1.7109 0.59375 3.5547 0.85547 5.332 0.85547 2.3711 0 4.543-0.52734 6.2578-1.5156 4.0156-2.3711 4.6094-6.3867 4.6094-8.5625 0-3.6211-1.582-7.4414-4.3477-10.801-2.7656-3.4258-6.4531-5.9258-10.535-7.2422-1.8438-0.59375-3.6875-0.92188-5.4648-0.92188-2.3047 0-4.3477 0.52734-6.0586 1.5156-3.0273 1.7773-4.7422 4.8711-4.6758 8.625 0 3.5547 1.5156 7.2422 4.3477 10.668 2.8281 3.4961 6.582 6.1289 10.535 7.3789zm-0.066406-23.641c2.9648 0.98828 5.793 2.8984 7.9023 5.5312 2.1719 2.6328 3.4258 5.7305 3.4258 8.4297 0 2.5664-0.98828 4.6094-2.8984 5.7305-0.98828 0.59375-2.1719 0.85547-3.4883 0.85547-1.1211 0-2.3047-0.19922-3.5547-0.59375-2.8984-0.92188-5.8594-2.9648-7.9688-5.5977-2.1719-2.6328-3.3594-5.5977-3.3594-8.3633 0-2.5664 0.98828-4.6094 2.8984-5.7305 0.98828-0.59375 2.1719-0.85547 3.4883-0.85547 1.1172 0.003906 2.3008 0.19922 3.5547 0.59375z"/>
  <path d="m342.82 324.38c1.5156 1.8438 3.5547 3.4258 5.6641 4.4102l0.85547 0.39453v-15.078l-0.32812-0.13281c-0.66016-0.32812-1.25-0.59375-1.7773-0.72266-1.0547-0.32812-2.043-0.52734-2.9648-0.52734-0.98828 0-1.7773 0.19922-2.5039 0.59375-1.25 0.72266-1.9102 2.1055-1.9102 4.0156 0.070312 2.2422 1.1211 4.8086 2.9648 7.0469z"/>
  <path d="m429.02 461.75c1.9766-3.0273 2.832-7.0469 2.4375-11.391-0.46094-4.4102-2.1055-8.4961-4.7422-11.918-2.7656-3.4883-6.3867-5.6641-9.8789-5.8594h-0.59375c-3.2266 0-6.1914 1.6445-8.1016 4.6094-1.9766 2.9648-2.7656 6.8477-2.3047 11.328 0.46094 4.4766 2.1055 8.6914 4.6758 11.984 2.7656 3.4883 6.4531 5.6641 10.008 5.8594h0.59375c4.3477-0.003906 6.9844-3.2305 7.9062-4.6133zm-9.418 0.13281c-2.1055-0.13281-4.1484-1.3828-5.9922-3.6875-1.9102-2.4375-3.1602-5.7305-3.4883-9.0859-0.32812-3.4258 0.32812-6.5195 1.8438-8.8242 1.7109-2.6328 3.7539-3.1602 5.2031-3.1602h0.39453c2.1055 0.13281 4.1484 1.3828 5.9922 3.6875 1.9102 2.4375 3.1602 5.6641 3.4883 9.0234 0.32812 3.4258-0.32812 6.6523-1.8438 8.957-1.7109 2.6328-3.8203 3.1602-5.2031 3.1602z"/>
  <path d="m380.69 371.2c2.3047 1.0547 4.7422 1.6445 7.0469 1.6445 1.6445 0 3.1602-0.26172 4.543-0.85547 4.2812-1.8438 5.3984-5.793 5.6641-7.9688 0.39453-3.5547-0.66016-7.5742-2.9648-11.262-2.3711-3.6875-5.6641-6.6523-9.6133-8.4961-2.3711-1.1211-4.8086-1.6445-7.0469-1.6445-1.582 0-3.0938 0.26172-4.4102 0.85547-3.2266 1.3828-5.2695 4.2812-5.7305 7.9688-0.39453 3.5547 0.59375 7.375 3.0273 11.129 2.3047 3.8242 5.7305 6.918 9.4844 8.6289zm-7.707-18.766c0.32812-2.5664 1.582-4.4766 3.5547-5.332 0.78906-0.32812 1.6445-0.46094 2.5664-0.46094 1.3828 0 2.8984 0.39453 4.4766 1.1211 2.832 1.3164 5.3984 3.6211 7.1797 6.4531 1.8438 2.8984 2.6992 6.125 2.3711 8.8242-0.32812 2.5664-1.582 4.4766-3.5547 5.332-0.78906 0.32812-1.6445 0.52734-2.5664 0.52734-1.3828 0-2.8984-0.39453-4.4766-1.1211-2.7656-1.3164-5.3984-3.6875-7.2422-6.5859-1.8477-2.8984-2.6367-5.9922-2.3086-8.7578z"/>
  <path d="m279.47 223.89h-0.66016l-0.92188-0.066406 2.1055 5.793 0.59375-0.39453c1.0547-0.59375 2.1719-1.0547 3.293-1.3164l0.66016-0.13281-1.582-4.4102-0.52734 0.13281c-0.91797 0.26172-1.9727 0.39453-2.9609 0.39453z"/>
  <path d="m386.48 148.04h-72.305v24.363l36.152 2.1094 36.152-2.1094z"/>
  <path d="m330.05 296.33-0.26172 0.39453 7.8359 9.3516 0.39453-0.19922c1.7109-0.72266 3.6211-1.1211 5.6641-1.1211 1.582 0 3.2266 0.19922 4.8711 0.66016l0.72266 0.19922 0.003906-129.2-12.512-0.72266-4.3477 110.76-0.066407-0.066406v1.1836c0.066407 2.1055-0.26172 4.082-0.85547 5.793-0.32812 1.0586-0.85547 2.0469-1.4492 2.9688z"/>
  <path d="m300.55 145.86v29.5c0 1.9766 1.6445 3.6211 3.6211 3.6211h4.4766c1.9766 0 3.6211-1.6445 3.6211-3.6211v-29.5c0-1.9766-1.582-3.6211-3.6211-3.6211h-4.4766c-2.043 0.066407-3.6211 1.6484-3.6211 3.6211z"/>
  <path d="m264.33 204.4c0.46094 4.4102 2.1055 8.625 4.6758 11.789 2.7656 3.4258 6.5195 5.5312 10.074 5.6641h0.46094c4.4766 0 7.1133-2.9648 8.2305-4.6758 2.043-3.0273 2.8984-7.0469 2.4375-11.328-0.39453-4.3477-2.043-8.3633-4.7422-11.723-2.7656-3.4258-6.4531-5.5312-9.9453-5.6641h-0.46094c-3.3594 0-6.3867 1.7109-8.3633 4.6758-2.0391 3.0312-2.8281 6.9141-2.3672 11.262zm11.59-12.051 0.26172 0.59375c2.1055 0.066407 4.2148 1.3164 5.9922 3.5547 1.9766 2.3711 3.2266 5.5977 3.5547 8.8906 0.32813 3.4258-0.32812 6.6523-1.8438 8.8906-1.7773 2.6328-3.8867 3.2266-5.332 3.2266v0.59375l-0.26172-0.59375c-2.1055-0.066406-4.2148-1.3164-5.9922-3.5547-1.9102-2.3711-3.2266-5.6641-3.5547-9.0234-0.32813-3.3594 0.32812-6.5195 1.8438-8.8242 1.7773-2.6328 3.8867-3.2266 5.332-3.2266z"/>
  <path d="m365.08 330.71 5.2695 5.793-6.5195-160.81-12.512 0.72266v130.05l0.39453 0.13281c3.7539 1.582 7.0469 4.0156 9.6133 7.1133 3.0273 3.7539 4.7422 8.0352 4.7422 12.051 0 1.6445-0.26172 3.2266-0.78906 4.6758z"/>
  <path d="m414.93 417.37c-0.52734 0.19922-0.98828 0.32812-1.5156 0.46094-0.66016 0.13281-1.4492 0.19922-2.1055 0.19922h-0.66016l1.9766 13.105 0.66016-0.19922c0.98828-0.26172 2.043-0.39453 3.0273-0.39453h0.66016l0.72266 0.066407-2.043-13.566z"/>
  <path d="m420.26 468.27c-0.59375-0.066406-1.25-0.13281-2.043-0.32812l-0.59375-0.13281-1.4492 8.7578 0.72266-0.066406c1.1836-0.066406 2.3047-0.19922 3.4883-0.26172l1.1836-0.13281 1.3828-8.0352-0.78906 0.066407c-0.39453 0.066406-0.72266 0.066406-1.1211 0.066406-0.32031 0.13281-0.51562 0.13281-0.78125 0.066406z"/>
  <path d="m452.33 156c0.66016-1.8438 0.32812-3.8867-0.85547-5.4648-1.1836-1.582-2.9648-2.5039-4.9375-2.5039h-44.516v23.508l45.965-2.6328z"/>
  <path d="m275.06 177.27c-0.98828 0-1.9766-0.13281-2.9648-0.39453l-0.78906-0.19922 0.19922 10.406 0.72266-0.19922c0.98828-0.26172 1.9102-0.32812 2.8984-0.32812h0.46094v-0.59375l0.32812 0.66016 0.66016 0.066406-0.13281-9.4844-0.92187 0.066407h-0.46094z"/>
  <path d="m282.5 172.6-15.016-0.85547 1.25 1.1211c0.59375 0.52734 1.25 0.98828 1.9102 1.3164 1.3828 0.72266 2.832 1.0547 4.4102 1.0547 1.9102 0 3.8203-0.52734 5.793-1.7109z"/>
  <path d="m334.86 85.738c0.72266-0.92188 0.78906-2.043 0.32812-3.0273-0.52734-0.98828-1.5156-1.582-2.6992-1.582-1.0547 0-1.9766 0.52734-2.5664 1.3164-7.7695 11.262-17.648 18.371-31.148 22.258-0.78906 0.19922-1.4492 0.72266-1.8438 1.4492-0.39453 0.66016-0.46094 1.4492-0.26172 2.1719 0.39453 1.25 1.582 2.1055 2.9648 2.1055 0.26172 0 0.52734-0.066407 0.85547-0.13281 14.68-4.2109 25.941-12.309 34.371-24.559z"/>
  <path d="m314.84 95.09 0.46094-0.32812c2.7656-1.9766 5.3984-4.3477 7.9688-7.1133l0.32812-0.32813-0.26172-0.39453c-3.6875-5.3984-5.5977-11.656-5.5977-18.109 0-17.977 14.617-32.598 32.598-32.598 17.977 0 32.598 14.617 32.598 32.598 0 17.91-14.617 32.531-32.598 32.531-7.0469 0-13.762-2.2383-19.492-6.5859l-0.39453-0.32812-0.39453 0.39453c-2.4375 2.5664-5.0703 4.9375-7.9023 7.0469l-0.59375 0.46094 0.59375 0.46094c4.9375 4.082 10.535 7.0469 16.594 8.625 0.46094 0.13281 0.72266 0.52734 0.72266 0.98828l-1.3828 33.586h11.262v-34.375c0-0.52734 0.46094-0.98828 0.98828-0.98828 0.52734 0 0.98828 0.46094 0.98828 0.98828v34.375h11.262l-1.3828-33.586c0-0.46094 0.26172-0.85547 0.72266-0.98828 19.164-5.2031 32.598-22.719 32.598-42.672 0-24.363-19.82-44.254-44.254-44.254-24.363 0-44.254 19.82-44.254 44.254 0 9.2852 2.8984 18.176 8.4297 25.812z"/>
  <path d="m285.79 145.07c-0.85547-0.98828-1.8438-1.7109-2.832-2.2383-1.3828-0.72266-2.8984-1.1211-4.4766-1.1211-1.9102 0-3.8203 0.52734-5.5977 1.582-0.78906 0.46094-1.582 1.0547-2.3047 1.7109l-1.1211 1.0547h17.32z"/>
  <path d="m289.68 131.24c1.0547 0 2.1055-0.13281 3.1602-0.46094 3.5547-0.98828 6.9805-3.4258 9.6133-6.9141 2.6328-3.4883 4.1484-7.5742 4.4102-11.789v-0.72266-1.1211l-0.78906 0.26172c-0.72266 0.26172-1.4492 0.52734-2.2383 0.72266l-0.98828 0.32812v0.39453c-0.19922 3.0273-1.3828 6.125-3.3594 8.6914-2.043 2.7656-4.7422 4.7422-7.4414 5.4648-0.78906 0.19922-1.582 0.32812-2.3047 0.32812-1.582 0-2.9648-0.52734-4.0156-1.5156-1.5156-1.4492-2.3047-3.6875-2.1055-6.5859 0.13281-3.0273 1.4492-6.2578 3.4883-9.0234 2.043-2.6992 4.6758-4.6094 7.375-5.332 0.66016-0.19922 1.3164-0.26172 1.9102-0.26172h0.19922l0.13281-0.13281c0.52734-0.39453 1.0547-0.66016 1.6445-0.85547 1.25-0.32812 2.4375-0.78906 3.5547-1.1836l1.1211-0.39453-0.98828-0.66016c-1.6445-1.0547-3.4883-1.6445-5.4648-1.6445-1.0547 0-2.1055 0.13281-3.1602 0.39453-3.5547 0.98828-6.7812 3.3594-9.4844 6.9141-2.6992 3.5547-4.2812 7.7695-4.543 11.789-0.26172 4.3477 1.1211 8.2305 3.6875 10.602 1.6484 1.7852 4.0195 2.707 6.5859 2.707z"/>
  <path d="m252.61 168.91 45.965 2.6328v-23.508h-44.516c-1.9766 0-3.7539 0.92188-4.9375 2.5039-1.1211 1.582-1.4492 3.6211-0.85547 5.4648z"/>
  <path d="m281.32 140.07 0.46094 0.13281 4.2148-7.5078-0.66016-0.26172c-0.72266-0.26172-1.3828-0.66016-2.1719-1.1211l-0.52734-0.32812-4.8711 8.8242h0.98828c0.85547-0.003907 1.7109 0.0625 2.5664 0.26172z"/>
  <path d="m524.11 363.83-0.59375-1.5156s-1.7109 4.6758-2.2383 6.2578c-5.793 16.266-11.328 31.609-28.449 49.914l-0.85547 0.92188 15.078 1.1211c0.32812 0 0.66016 0.19922 0.78906 0.52734 0.13281 0.26172 0.13281 0.66016 0 0.92187-19.754 36.613-54.656 56.766-98.25 56.766-2.832 0-5.7305-0.066407-8.5625-0.26172-12.711-0.72266-26.012-12.312-26.145-30.359l-3.293-81.59-0.13281-0.13281c-0.78906-0.92188-1.4492-1.8438-1.9766-2.6992-2.6328-4.1484-3.7539-8.4297-3.293-12.445 0.19922-1.4492 0.59375-2.7656 1.1836-4.082l0.19922-0.39453-9.0234-9.8789-0.39453 0.13281c-1.582 0.52734-3.2266 0.78906-4.8711 0.78906-0.26172 0-0.52734 0-0.78906-0.066406l-0.52734-0.066406-0.66016-0.066406v154.36l27.195 28.383 0.32812-0.13281c6.3203-2.1055 12.906-3.8867 19.887-5.7305 10.668-2.832 21.73-5.793 33.586-10.602 38.59-15.539 66.379-41.09 84.883-78.23 0.13281-0.26172 0.39453-0.46094 0.85547-0.52734 0.19922 0 0.46094 0.066406 0.59375 0.19922l10.668 8.7578 0.19922-0.98828c4.293-22.258 2.1172-49.52-5.3906-69.277z"/>
  <path d="m324.25 521.08 0.85547 0.32812c10.008 3.6211 17.91 7.9688 24.891 13.695l0.39453 0.32812 0.39453-0.32812c6.9805-5.6641 14.883-10.008 24.824-13.695l0.85547-0.32812-26.078-27.262z"/>
  <path d="m302.85 271.11c0.72266-1.0547 1.582-1.9766 2.6328-2.7656l0.39453-0.32812-4.4766-7.4414-0.52734 0.46094c-0.92188 0.85547-1.9766 1.5156-3.0938 2.043l-0.59375 0.26172 5.1367 8.5625z"/>
  <path d="m349.34 337.36-0.98828-0.19922c-0.39453-0.066406-0.72266-0.13281-1.1211-0.26172-4.2812-1.3828-8.3633-4.2148-11.457-7.9688-1.7109-2.043-2.9648-4.2148-3.7539-6.5195l-1.1836 0.19922-5.1367 125.64c-0.13281 17.977-13.367 29.5-26.145 30.293-2.8984 0.19922-5.793 0.26172-8.625 0.26172-43.66 0-78.496-20.152-98.25-56.766-0.13281-0.26172-0.13281-0.66016 0-0.92187 0.13281-0.26172 0.46094-0.46094 0.78906-0.52734l15.078-1.1211-0.85547-0.92188c-17.121-18.309-22.652-33.648-28.449-49.914l-2.2383-6.2578-0.59375 1.5156c-7.5078 19.82-9.6797 47.02-5.4648 69.406l0.19922 0.98828 10.805-8.8867c0.19922-0.13281 0.39453-0.19922 0.59375-0.19922h0.19922c0.26172 0.066406 0.52734 0.26172 0.66016 0.52734 18.504 37.074 46.293 62.691 84.949 78.23 11.852 4.7422 22.918 7.7031 33.648 10.602 6.9805 1.8438 13.5 3.6211 19.82 5.7305l0.32813 0.13281 27.195-28.383z"/>
  <path d="m332.95 310.23c0.72266-1.1211 1.5156-2.043 2.5039-2.7656l0.46094-0.39453-7.375-8.8242-0.46094 0.39453c-0.92188 0.78906-1.9766 1.5156-3.1602 1.9766l-0.72266 0.32812 8.2969 9.8789z"/>
  <path d="m369.1 344.6c0.85547-0.92187 1.7773-1.7109 2.832-2.3047l0.66016-0.39453-8.4961-9.3516-0.46094 0.59375c-0.72266 0.92188-1.6445 1.7773-2.6992 2.5039l-0.59375 0.39453 8.2305 9.0234z"/>
  <path d="m388.46 145.86v29.5c0 1.9766 1.6445 3.6211 3.6211 3.6211h4.4766c1.9766 0 3.6211-1.6445 3.6211-3.6211v-29.5c0-1.9766-1.582-3.6211-3.6211-3.6211h-4.543c-1.9727 0.066407-3.5547 1.6484-3.5547 3.6211z"/>
  <path d="m396.23 371.66c-0.98828 0.92188-2.043 1.582-3.1602 2.1055l-0.52734 0.19922 3.7539 10.008 0.59375-0.32812c0.98828-0.59375 2.043-0.98828 3.0938-1.1836l-0.13281-0.59375 0.46094 0.52734 0.72266-0.13281-4.1484-11.262z"/>
  <path d="m283.36 257.94c2.8984 2.6328 6.4531 4.1484 9.6797 4.1484 0.39453 0 0.78906 0 1.1211-0.066406 4.6758-0.52734 6.9805-3.9492 7.9023-5.9922 1.5156-3.293 1.7773-7.375 0.66016-11.59-1.1211-4.2148-3.3594-7.9688-6.5195-10.801-2.9648-2.6328-6.3867-4.1484-9.5469-4.1484-0.39453 0-0.72266 0-1.1211 0.066406-3.4883 0.39453-6.3867 2.5664-7.9688 5.9922-1.5156 3.2266-1.7109 7.1797-0.59375 11.457 1.0508 4.3477 3.3555 8.2305 6.3867 10.934zm4.2148-24.168c1.9102 0 3.9492 0.92187 5.8594 2.6328 2.3047 2.043 4.0156 5.0039 4.8711 8.2305 0.85547 3.293 0.66016 6.5859-0.46094 9.0859-1.1211 2.3711-2.8984 3.7539-5.0039 4.0156-0.19922 0-0.46094 0.066407-0.66016 0.066407-1.9102 0-3.9492-0.92188-5.8594-2.6328-2.2383-2.043-4.0156-5.0703-4.8711-8.3633-0.85547-3.293-0.66016-6.4531 0.46094-8.957 1.1211-2.3711 2.8984-3.7539 5.0039-4.0156 0.19922 0.003906 0.39453-0.0625 0.66016-0.0625z"/>
  <path d="m311.21 296.53c2.7656 2.043 5.9922 3.1602 8.957 3.1602 0.78906 0 1.5156-0.066406 2.2383-0.26172 4.6094-0.98828 6.5195-4.6758 7.2422-6.7188 1.1836-3.4258 0.98828-7.5078-0.52734-11.59-1.5156-4.082-4.1484-7.5742-7.5742-10.074-2.832-2.043-5.9258-3.1602-8.8242-3.1602-0.78906 0-1.5156 0.066407-2.2383 0.26172-3.4258 0.72266-6.125 3.2266-7.3086 6.7812-1.1836 3.3594-0.98828 7.3086 0.59375 11.457 1.4492 4.1523 4.1484 7.7734 7.4414 10.145zm13.961-5.6602c-0.85547 2.4375-2.4375 4.082-4.6094 4.543-0.39453 0.066406-0.85547 0.13281-1.3164 0.13281-1.7773 0-3.5547-0.66016-5.4648-2.043-2.4375-1.7773-4.543-4.6094-5.7305-7.7695-1.1836-3.1602-1.3164-6.3867-0.46094-8.957 0.85547-2.4375 2.4375-4.082 4.6094-4.543 0.39453-0.066407 0.85547-0.13281 1.3164-0.13281 1.7109 0 3.6211 0.72266 5.4648 2.043 2.5039 1.8438 4.543 4.543 5.6641 7.7031 1.25 3.1602 1.3828 6.4531 0.52734 9.0234z"/>
  <use x="70" y="569.878906" xlink:href="#g"/>
  <use x="72.417969" y="569.878906" xlink:href="#a"/>
  <use x="74.039062" y="569.878906" xlink:href="#b"/>
  <use x="76.273438" y="569.878906" xlink:href="#c"/>
  <use x="78.496094" y="569.878906" xlink:href="#e"/>
  <use x="80.070312" y="569.878906" xlink:href="#b"/>
  <use x="82.300781" y="569.878906" xlink:href="#j"/>
  <use x="85.804688" y="569.878906" xlink:href="#f"/>
  <use x="88.164062" y="569.878906" xlink:href="#i"/>
  <use x="91.453125" y="569.878906" xlink:href="#h"/>
  <use x="94.003906" y="569.878906" xlink:href="#u"/>
  <use x="95.132812" y="569.878906" xlink:href="#t"/>
  <use x="97.277344" y="569.878906" xlink:href="#c"/>
  <use x="99.5" y="569.878906" xlink:href="#a"/>
  <use x="101.125" y="569.878906" xlink:href="#d"/>
  <use x="104.53125" y="569.878906" xlink:href="#g"/>
  <use x="106.949219" y="569.878906" xlink:href="#c"/>
  <use x="109.171875" y="569.878906" xlink:href="#f"/>
  <use x="111.527344" y="569.878906" xlink:href="#a"/>
  <use x="113.152344" y="569.878906" xlink:href="#b"/>
  <use x="115.382812" y="569.878906" xlink:href="#a"/>
  <use x="117.007812" y="569.878906" xlink:href="#c"/>
  <use x="70" y="573.171875" xlink:href="#s"/>
  <use x="71.433594" y="573.171875" xlink:href="#a"/>
  <use x="73.054688" y="573.171875" xlink:href="#d"/>
  <use x="75.316406" y="573.171875" xlink:href="#r"/>
  <use x="79.894531" y="573.171875" xlink:href="#e"/>
  <use x="81.46875" y="573.171875" xlink:href="#q"/>
  <use x="83.8125" y="573.171875" xlink:href="#b"/>
  <use x="87.191406" y="573.171875" xlink:href="#p"/>
  <use x="89.949219" y="573.171875" xlink:href="#d"/>
  <use x="92.210938" y="573.171875" xlink:href="#o"/>
  <use x="94.554688" y="573.171875" xlink:href="#n"/>
  <use x="98.042969" y="573.171875" xlink:href="#m"/>
  <use x="100.457031" y="573.171875" xlink:href="#a"/>
  <use x="102.082031" y="573.171875" xlink:href="#d"/>
  <use x="104.34375" y="573.171875" xlink:href="#l"/>
  <use x="105.472656" y="573.171875" xlink:href="#b"/>
  <use x="107.707031" y="573.171875" xlink:href="#k"/>
  <use x="109.65625" y="573.171875" xlink:href="#e"/>
 </g>
</svg>
