<?xml version="1.0" encoding="UTF-8"?>
<svg width="700pt" height="700pt" version="1.1" viewBox="0 0 700 700" xmlns="http://www.w3.org/2000/svg" xmlns:xlink="http://www.w3.org/1999/xlink">
 <defs>
  <symbol id="v" overflow="visible">
   <path d="m7.5312-0.45312c-0.38672 0.21094-0.79297 0.35938-1.2188 0.45312-0.41797 0.10156-0.85547 0.15625-1.3125 0.15625-1.3672 0-2.4492-0.37891-3.25-1.1406-0.79297-0.75781-1.1875-1.7969-1.1875-3.1094s0.39453-2.3477 1.1875-3.1094c0.80078-0.75781 1.8828-1.1406 3.25-1.1406 0.45703 0 0.89453 0.054688 1.3125 0.15625 0.42578 0.09375 0.83203 0.24609 1.2188 0.45312v1.6875c-0.38672-0.25781-0.77344-0.45312-1.1562-0.57812-0.375-0.125-0.77734-0.1875-1.2031-0.1875-0.75 0-1.3438 0.24609-1.7812 0.73438-0.42969 0.48047-0.64062 1.1406-0.64062 1.9844s0.21094 1.5117 0.64062 2c0.4375 0.48047 1.0312 0.71875 1.7812 0.71875 0.42578 0 0.82812-0.0625 1.2031-0.1875 0.38281-0.125 0.76953-0.31641 1.1562-0.57812z"/>
  </symbol>
  <symbol id="b" overflow="visible">
   <path d="m5.5156-4.4844c-0.17969-0.070313-0.35156-0.12891-0.51562-0.17188-0.16797-0.039062-0.33984-0.0625-0.51562-0.0625-0.5 0-0.89062 0.16797-1.1719 0.5-0.27344 0.32422-0.40625 0.78906-0.40625 1.3906v2.8281h-1.9688v-6.1562h1.9688v1.0156c0.25781-0.40625 0.55078-0.69531 0.875-0.875 0.33203-0.1875 0.72266-0.28125 1.1719-0.28125 0.070313 0 0.14453 0.007813 0.21875 0.015625 0.082031 0 0.19531 0.011719 0.34375 0.03125z"/>
  </symbol>
  <symbol id="a" overflow="visible">
   <path d="m7.0938-3.0938v0.5625h-4.6094c0.050781 0.46094 0.21875 0.80859 0.5 1.0469 0.28906 0.23047 0.69141 0.34375 1.2031 0.34375 0.41406 0 0.83594-0.0625 1.2656-0.1875 0.4375-0.125 0.88281-0.3125 1.3438-0.5625v1.5156c-0.46875 0.17969-0.9375 0.30859-1.4062 0.39062-0.46094 0.09375-0.92188 0.14062-1.3906 0.14062-1.1172 0-1.9805-0.28125-2.5938-0.84375-0.61719-0.5625-0.92188-1.3594-0.92188-2.3906 0-1 0.30078-1.7852 0.90625-2.3594 0.60156-0.57031 1.4375-0.85938 2.5-0.85938 0.96875 0 1.7422 0.29297 2.3281 0.875 0.58203 0.58594 0.875 1.3594 0.875 2.3281zm-2.0312-0.65625c0-0.375-0.10938-0.67578-0.32812-0.90625-0.21875-0.22656-0.5-0.34375-0.84375-0.34375-0.38672 0-0.69922 0.10938-0.9375 0.32812-0.24219 0.21875-0.38672 0.52734-0.4375 0.92188z"/>
  </symbol>
  <symbol id="f" overflow="visible">
   <path d="m3.7031-2.7656c-0.40625 0-0.71484 0.074219-0.92188 0.21875-0.21094 0.13672-0.3125 0.33984-0.3125 0.60938 0 0.24219 0.082031 0.43359 0.25 0.57812 0.16406 0.14844 0.39453 0.21875 0.6875 0.21875 0.375 0 0.6875-0.12891 0.9375-0.39062 0.25-0.26953 0.375-0.60938 0.375-1.0156v-0.21875zm3-0.75v3.5156h-1.9844v-0.90625c-0.26172 0.36719-0.55859 0.63672-0.89062 0.8125-0.32422 0.16406-0.72656 0.25-1.2031 0.25-0.63672 0-1.1523-0.17969-1.5469-0.54688-0.39844-0.375-0.59375-0.85938-0.59375-1.4531 0-0.71875 0.24219-1.2422 0.73438-1.5781 0.5-0.34375 1.2812-0.51562 2.3438-0.51562h1.1562v-0.15625c0-0.3125-0.125-0.53906-0.375-0.6875-0.24219-0.14453-0.62109-0.21875-1.1406-0.21875-0.41797 0-0.80859 0.046875-1.1719 0.14062-0.36719 0.085937-0.70312 0.21094-1.0156 0.375v-1.5c0.42578-0.10156 0.84766-0.17969 1.2656-0.23438 0.42578-0.050781 0.85156-0.078125 1.2812-0.078125 1.1133 0 1.9141 0.21875 2.4062 0.65625 0.48828 0.4375 0.73438 1.1484 0.73438 2.125z"/>
  </symbol>
  <symbol id="c" overflow="visible">
   <path d="m3.0938-7.9062v1.75h2.0312v1.4062h-2.0312v2.6094c0 0.29297 0.054688 0.49219 0.17188 0.59375 0.11328 0.09375 0.33594 0.14062 0.67188 0.14062h1.0156v1.4062h-1.6875c-0.78125 0-1.3359-0.16016-1.6562-0.48438-0.32422-0.32031-0.48438-0.875-0.48438-1.6562v-2.6094h-0.98438v-1.4062h0.98438v-1.75z"/>
  </symbol>
  <symbol id="k" overflow="visible">
   <path d="m5.125-5.25v-3.2969h1.9844v8.5469h-1.9844v-0.89062c-0.27344 0.36719-0.57031 0.63281-0.89062 0.79688-0.32422 0.16406-0.69922 0.25-1.125 0.25-0.76172 0-1.3867-0.29688-1.875-0.89062-0.49219-0.60156-0.73438-1.3828-0.73438-2.3438 0-0.94531 0.24219-1.7188 0.73438-2.3125 0.48828-0.60156 1.1133-0.90625 1.875-0.90625 0.41406 0 0.78516 0.085937 1.1094 0.25 0.33203 0.16797 0.63281 0.43359 0.90625 0.79688zm-1.2969 3.9844c0.42578 0 0.75-0.14844 0.96875-0.45312 0.21875-0.3125 0.32812-0.76562 0.32812-1.3594 0-0.58203-0.10938-1.0234-0.32812-1.3281-0.21875-0.3125-0.54297-0.46875-0.96875-0.46875-0.41797 0-0.73438 0.15625-0.95312 0.46875-0.21875 0.30469-0.32812 0.74609-0.32812 1.3281 0 0.59375 0.10938 1.0469 0.32812 1.3594 0.21875 0.30469 0.53516 0.45312 0.95312 0.45312z"/>
  </symbol>
  <symbol id="j" overflow="visible">
   <path d="m4.2188-1.2656c0.41406 0 0.73438-0.14844 0.95312-0.45312 0.22656-0.3125 0.34375-0.76562 0.34375-1.3594 0-0.58203-0.11719-1.0234-0.34375-1.3281-0.21875-0.3125-0.53906-0.46875-0.95312-0.46875-0.41797 0-0.74219 0.15625-0.96875 0.46875-0.23047 0.3125-0.34375 0.75781-0.34375 1.3281 0 0.58594 0.11328 1.0312 0.34375 1.3438 0.22656 0.3125 0.55078 0.46875 0.96875 0.46875zm-1.3125-3.9844c0.26953-0.36328 0.57031-0.62891 0.90625-0.79688 0.33203-0.16406 0.71094-0.25 1.1406-0.25 0.75781 0 1.3789 0.30469 1.8594 0.90625 0.48828 0.59375 0.73438 1.3672 0.73438 2.3125 0 0.96094-0.24609 1.7422-0.73438 2.3438-0.48047 0.59375-1.1016 0.89062-1.8594 0.89062-0.42969 0-0.80859-0.085938-1.1406-0.25-0.33594-0.17578-0.63672-0.44141-0.90625-0.79688v0.89062h-1.9688v-8.5469h1.9688z"/>
  </symbol>
  <symbol id="i" overflow="visible">
   <path d="m0.14062-6.1562h1.9688l1.6406 4.1719 1.4062-4.1719h1.9688l-2.5781 6.7344c-0.26172 0.6875-0.57031 1.1641-0.92188 1.4375-0.34375 0.26953-0.79688 0.40625-1.3594 0.40625h-1.1406v-1.2812h0.60938c0.33203 0 0.57812-0.058594 0.73438-0.17188 0.15625-0.10547 0.27344-0.29297 0.35938-0.5625l0.046875-0.17188z"/>
  </symbol>
  <symbol id="e" overflow="visible">
   <path d="m0.875-2.3906v-3.7656h1.9844v0.625c0 0.33594-0.007813 0.75-0.015625 1.25v1c0 0.5 0.007812 0.85938 0.03125 1.0781 0.03125 0.21875 0.078125 0.375 0.14062 0.46875 0.082031 0.13672 0.1875 0.24219 0.3125 0.3125 0.13281 0.0625 0.28516 0.09375 0.45312 0.09375 0.40625 0 0.72266-0.15625 0.95312-0.46875 0.23828-0.32031 0.35938-0.75781 0.35938-1.3125v-3.0469h1.9688v6.1562h-1.9688v-0.89062c-0.29297 0.35547-0.60547 0.62109-0.9375 0.79688-0.33594 0.16406-0.69922 0.25-1.0938 0.25-0.71094 0-1.25-0.21094-1.625-0.64062-0.375-0.4375-0.5625-1.0703-0.5625-1.9062z"/>
  </symbol>
  <symbol id="u" overflow="visible">
   <path d="m0.9375-8.5469h1.9688v8.5469h-1.9688z"/>
  </symbol>
  <symbol id="h" overflow="visible">
   <path d="m0.9375-6.1562h1.9688v6.1562h-1.9688zm0-2.3906h1.9688v1.6094h-1.9688z"/>
  </symbol>
  <symbol id="g" overflow="visible">
   <path d="m7.125-3.75v3.75h-1.9688v-2.875c0-0.51953-0.015625-0.87891-0.046875-1.0781-0.023437-0.20703-0.058594-0.35938-0.10938-0.45312-0.085938-0.13281-0.19531-0.23438-0.32812-0.29688-0.125-0.070313-0.27344-0.10938-0.4375-0.10938-0.41797 0-0.74609 0.15625-0.98438 0.46875-0.23047 0.3125-0.34375 0.75-0.34375 1.3125v3.0312h-1.9688v-6.1562h1.9688v0.90625c0.30078-0.36328 0.61719-0.62891 0.95312-0.79688 0.33203-0.16406 0.69531-0.25 1.0938-0.25 0.71875 0 1.2578 0.21875 1.625 0.65625 0.36328 0.42969 0.54688 1.0586 0.54688 1.8906z"/>
  </symbol>
  <symbol id="t" overflow="visible">
   <path d="m5.1719-4.1094c0-1.0195-0.10156-1.7383-0.29688-2.1562-0.1875-0.42578-0.50781-0.64062-0.95312-0.64062-0.46094 0-0.78906 0.21484-0.98438 0.64062-0.1875 0.41797-0.28125 1.1367-0.28125 2.1562 0 1.043 0.09375 1.7773 0.28125 2.2031 0.19531 0.41797 0.52344 0.625 0.98438 0.625 0.44531 0 0.76562-0.20703 0.95312-0.625 0.19531-0.42578 0.29688-1.1602 0.29688-2.2031zm2.125 0.015625c0 1.3672-0.29688 2.418-0.89062 3.1562-0.58594 0.73047-1.4141 1.0938-2.4844 1.0938-1.0859 0-1.9219-0.36328-2.5156-1.0938-0.58594-0.73828-0.875-1.7891-0.875-3.1562 0-1.3633 0.28906-2.4102 0.875-3.1406 0.59375-0.73828 1.4297-1.1094 2.5156-1.1094 1.0703 0 1.8984 0.37109 2.4844 1.1094 0.59375 0.73047 0.89062 1.7773 0.89062 3.1406z"/>
  </symbol>
  <symbol id="s" overflow="visible">
   <path d="m3.9219-3.6719c-0.39844 0-0.70312 0.10938-0.92188 0.32812-0.21094 0.21875-0.3125 0.52734-0.3125 0.92188 0 0.40625 0.10156 0.71875 0.3125 0.9375 0.21875 0.21094 0.52344 0.3125 0.92188 0.3125 0.38281 0 0.67969-0.10156 0.89062-0.3125 0.20703-0.21875 0.3125-0.53125 0.3125-0.9375s-0.10547-0.71094-0.3125-0.92188c-0.21094-0.21875-0.50781-0.32812-0.89062-0.32812zm-1.5469-0.6875c-0.5-0.15625-0.875-0.39062-1.125-0.70312s-0.375-0.69531-0.375-1.1562c0-0.69531 0.25391-1.2227 0.76562-1.5781 0.51953-0.36328 1.2812-0.54688 2.2812-0.54688 0.98828 0 1.7383 0.18359 2.25 0.54688 0.51953 0.35547 0.78125 0.88281 0.78125 1.5781 0 0.46094-0.13281 0.84375-0.39062 1.1562-0.25 0.3125-0.625 0.54688-1.125 0.70312 0.5625 0.14844 0.98438 0.39844 1.2656 0.75 0.28125 0.34375 0.42188 0.77734 0.42188 1.2969 0 0.8125-0.27344 1.4297-0.8125 1.8438-0.53125 0.41797-1.3281 0.625-2.3906 0.625-1.0742 0-1.8828-0.20703-2.4219-0.625-0.54297-0.41406-0.8125-1.0312-0.8125-1.8438 0-0.51953 0.14062-0.95312 0.42188-1.2969 0.28125-0.35156 0.70312-0.60156 1.2656-0.75zm0.5-1.6562c0 0.33594 0.085938 0.58984 0.26562 0.76562 0.17578 0.16797 0.4375 0.25 0.78125 0.25 0.32031 0 0.57031-0.082031 0.75-0.25 0.1875-0.17578 0.28125-0.42969 0.28125-0.76562 0-0.32031-0.09375-0.56641-0.28125-0.73438-0.17969-0.17578-0.42969-0.26562-0.75-0.26562-0.34375 0-0.60547 0.089844-0.78125 0.26562-0.17969 0.16797-0.26562 0.41406-0.26562 0.73438z"/>
  </symbol>
  <symbol id="r" overflow="visible">
   <path d="m5-8.5469v1.2969h-1.0938c-0.28125 0-0.48047 0.054688-0.59375 0.15625-0.10547 0.09375-0.15625 0.26562-0.15625 0.51562v0.42188h1.6875v1.4062h-1.6875v4.75h-1.9688v-4.75h-0.96875v-1.4062h0.96875v-0.42188c0-0.67578 0.1875-1.1719 0.5625-1.4844 0.375-0.32031 0.95312-0.48438 1.7344-0.48438z"/>
  </symbol>
  <symbol id="d" overflow="visible">
   <path d="m3.875-4.8906c-0.4375 0-0.77344 0.15625-1 0.46875-0.23047 0.3125-0.34375 0.76172-0.34375 1.3438 0 0.59375 0.11328 1.0469 0.34375 1.3594 0.22656 0.3125 0.5625 0.46875 1 0.46875 0.42578 0 0.75391-0.15625 0.98438-0.46875 0.22656-0.3125 0.34375-0.76562 0.34375-1.3594 0-0.58203-0.11719-1.0312-0.34375-1.3438-0.23047-0.3125-0.55859-0.46875-0.98438-0.46875zm0-1.4062c1.0508 0 1.875 0.28906 2.4688 0.85938 0.60156 0.5625 0.90625 1.3516 0.90625 2.3594 0 1.0234-0.30469 1.8203-0.90625 2.3906-0.59375 0.5625-1.418 0.84375-2.4688 0.84375-1.0625 0-1.8984-0.28125-2.5-0.84375-0.59375-0.57031-0.89062-1.3672-0.89062-2.3906 0-1.0078 0.29688-1.7969 0.89062-2.3594 0.60156-0.57031 1.4375-0.85938 2.5-0.85938z"/>
  </symbol>
  <symbol id="q" overflow="visible">
   <path d="m6.6406-5.125c0.25-0.38281 0.54688-0.67578 0.89062-0.875 0.34375-0.19531 0.71875-0.29688 1.125-0.29688 0.70703 0 1.2422 0.21875 1.6094 0.65625 0.375 0.42969 0.5625 1.0586 0.5625 1.8906v3.75h-1.9688v-3.2031-0.15625-0.21875c0-0.4375-0.0625-0.75-0.1875-0.9375-0.125-0.19531-0.33594-0.29688-0.625-0.29688-0.36719 0-0.65234 0.15625-0.85938 0.46875-0.19922 0.30469-0.30469 0.74609-0.3125 1.3281v3.0156h-1.9844v-3.2031c0-0.6875-0.058594-1.125-0.17188-1.3125-0.11719-0.19531-0.32422-0.29688-0.625-0.29688-0.375 0-0.66797 0.15625-0.875 0.46875-0.21094 0.30469-0.3125 0.74219-0.3125 1.3125v3.0312h-1.9688v-6.1562h1.9688v0.90625c0.25-0.34375 0.53125-0.60156 0.84375-0.78125 0.3125-0.17578 0.65625-0.26562 1.0312-0.26562 0.42578 0 0.80078 0.10547 1.125 0.3125 0.32031 0.19922 0.56641 0.48438 0.73438 0.85938z"/>
  </symbol>
  <symbol id="p" overflow="visible">
   <path d="m7.125-3.75v3.75h-1.9688v-2.8594c0-0.53125-0.015625-0.89453-0.046875-1.0938-0.023437-0.20703-0.058594-0.35938-0.10938-0.45312-0.085938-0.13281-0.19531-0.23438-0.32812-0.29688-0.125-0.070313-0.27344-0.10938-0.4375-0.10938-0.41797 0-0.74609 0.15625-0.98438 0.46875-0.23047 0.3125-0.34375 0.75-0.34375 1.3125v3.0312h-1.9688v-8.5469h1.9688v3.2969c0.30078-0.36328 0.61719-0.62891 0.95312-0.79688 0.33203-0.16406 0.69531-0.25 1.0938-0.25 0.71875 0 1.2578 0.21875 1.625 0.65625 0.36328 0.42969 0.54688 1.0586 0.54688 1.8906z"/>
  </symbol>
  <symbol id="o" overflow="visible">
   <path d="m1.0312-8.2031h2.3594l2.9844 5.625v-5.625h2v8.2031h-2.3594l-2.9844-5.625v5.625h-2z"/>
  </symbol>
  <symbol id="n" overflow="visible">
   <path d="m1.0312-8.2031h3.5156c1.0391 0 1.8359 0.23438 2.3906 0.70312 0.5625 0.46094 0.84375 1.1172 0.84375 1.9688 0 0.86719-0.28125 1.5312-0.84375 2-0.55469 0.46094-1.3516 0.6875-2.3906 0.6875h-1.4062v2.8438h-2.1094zm2.1094 1.5312v2.2969h1.1719c0.41406 0 0.73438-0.097656 0.95312-0.29688 0.22656-0.20703 0.34375-0.49219 0.34375-0.85938 0-0.36328-0.11719-0.64453-0.34375-0.84375-0.21875-0.19531-0.53906-0.29688-0.95312-0.29688z"/>
  </symbol>
  <symbol id="m" overflow="visible">
   <path d="m0.9375-6.1562h1.9688v6.0469c0 0.82031-0.19922 1.4453-0.59375 1.875-0.39844 0.4375-0.96875 0.65625-1.7188 0.65625h-0.96875v-1.2812h0.34375c0.375 0 0.62891-0.089844 0.76562-0.26562 0.13281-0.16797 0.20312-0.49609 0.20312-0.98438zm0-2.3906h1.9688v1.6094h-1.9688z"/>
  </symbol>
  <symbol id="l" overflow="visible">
   <path d="m5.9219-5.9531v1.5938c-0.27344-0.17578-0.54297-0.30469-0.8125-0.39062-0.27344-0.09375-0.54688-0.14062-0.82812-0.14062-0.55469 0-0.98438 0.16406-1.2969 0.48438-0.30469 0.3125-0.45312 0.75781-0.45312 1.3281 0 0.58594 0.14844 1.0391 0.45312 1.3594 0.3125 0.3125 0.74219 0.46875 1.2969 0.46875 0.30078 0 0.58594-0.039062 0.85938-0.125 0.28125-0.09375 0.53906-0.23438 0.78125-0.42188v1.6094c-0.3125 0.11719-0.63281 0.19531-0.95312 0.25-0.3125 0.0625-0.625 0.09375-0.9375 0.09375-1.1172 0-1.9844-0.28125-2.6094-0.84375-0.625-0.57031-0.9375-1.3672-0.9375-2.3906 0-1.0078 0.3125-1.7969 0.9375-2.3594 0.625-0.57031 1.4922-0.85938 2.6094-0.85938 0.32031 0 0.64062 0.03125 0.95312 0.09375 0.3125 0.054687 0.625 0.13672 0.9375 0.25z"/>
  </symbol>
 </defs>
 <g>
  <path d="m298.27 38.234v33.734c0 22.488 17.992 38.234 38.234 38.234l2.25 6.7461c-15.742 6.7461-24.738 24.738-20.242 42.73l6.7461 33.734c2.25 8.9961 8.9961 17.992 17.992 22.488l-4.4961 6.7461c-20.242-2.25-40.48 15.742-40.48 38.234v35.984c0 20.242 15.742 35.984 38.234 35.984l2.25 8.9961c-15.742 8.9961-24.738 24.738-20.242 42.73l6.7461 33.734c2.25 11.246 8.9961 20.242 17.992 24.738l-4.4961 6.7461h-2.25c-20.242 0-38.234 15.742-38.234 38.234v33.734c0 49.477 76.465 49.477 76.465 0v-33.734c0-13.492-6.7461-26.988-17.992-33.734l2.25-6.7461c24.738 4.4961 47.23-20.242 40.48-44.98l-6.7461-33.734c-4.4961-17.992-20.242-29.238-35.984-29.238l-4.4961-8.9961c13.492-6.7461 22.488-20.242 22.488-33.734v-35.984c0-13.492-6.7461-24.738-17.992-31.484l2.25-6.7461c24.738 2.25 47.23-22.488 40.48-47.23l-6.7461-33.734c-4.4961-17.992-20.242-29.238-35.984-29.238l-2.25-6.7461c11.246-6.7461 20.242-17.992 20.242-33.734v-33.734c0-51.727-76.465-51.727-76.465 0zm33.734 429.56-4.4961 8.9961c-4.4961 8.9961 13.492 15.742 15.742 8.9961l6.7461-13.492c4.4961 2.25 6.7461 8.9961 6.7461 15.742v33.734c0 26.988-40.48 26.988-40.48 0v-33.734c0-11.246 6.7461-17.992 15.742-20.242zm40.48-49.477c2.25-8.9961-13.492-15.742-15.742-6.7461l-6.7461 13.492c-4.4961-2.25-6.7461-4.4961-6.7461-8.9961l-8.9961-33.734c-2.25-8.9961 2.25-17.992 8.9961-22.488l6.7461 13.492c2.25 6.7461 17.992 2.25 15.742-6.7461l-4.4961-8.9961c6.7461 2.25 11.246 6.7461 13.492 13.492l8.9961 35.984c2.25 11.246-4.4961 20.242-17.992 24.738zm-31.484-119.2c-2.25-8.9961-17.992-4.4961-15.742 4.4961l4.4961 11.246c-8.9961-2.25-13.492-8.9961-13.492-17.992v-35.984c0-8.9961 6.7461-17.992 15.742-20.242l-4.4961 11.246c-4.4961 6.7461 13.492 13.492 15.742 6.7461l6.7461-13.492c4.4961 4.4961 6.7461 8.9961 6.7461 15.742v35.984c0 6.7461-4.4961 13.492-8.9961 15.742zm31.484-107.95c2.25-6.7461-13.492-15.742-15.742-6.7461l-6.7461 15.742c-4.4961-2.25-6.7461-6.7461-6.7461-11.246l-8.9961-33.734c-2.25-8.9961 2.25-17.992 8.9961-22.488l6.7461 13.492c2.25 8.9961 17.992 2.25 15.742-4.4961l-4.4961-11.246c6.7461 2.25 11.246 8.9961 13.492 15.742l8.9961 33.734c2.25 11.246-4.4961 22.488-17.992 24.738zm-31.484-119.2c-2.25-8.9961-17.992-2.25-15.742 4.4961l4.4961 15.742c-8.9961-2.25-13.492-11.246-13.492-20.242v-33.734c0-26.988 40.48-26.988 40.48 0v33.734c0 6.7461-4.4961 13.492-8.9961 17.992l-6.7461-17.992z"/>
  <use x="298.273438" y="593.734375" xlink:href="#v"/>
  <use x="306.527344" y="593.734375" xlink:href="#b"/>
  <use x="312.070313" y="593.734375" xlink:href="#a"/>
  <use x="319.699219" y="593.734375" xlink:href="#f"/>
  <use x="327.285156" y="593.734375" xlink:href="#c"/>
  <use x="332.660156" y="593.734375" xlink:href="#a"/>
  <use x="340.289063" y="593.734375" xlink:href="#k"/>
  <use x="352.253906" y="593.734375" xlink:href="#j"/>
  <use x="360.300781" y="593.734375" xlink:href="#i"/>
  <use x="371.546875" y="593.734375" xlink:href="#b"/>
  <use x="377.09375" y="593.734375" xlink:href="#e"/>
  <use x="385.097656" y="593.734375" xlink:href="#u"/>
  <use x="388.953125" y="593.734375" xlink:href="#h"/>
  <use x="392.808594" y="593.734375" xlink:href="#f"/>
  <use x="400.394531" y="593.734375" xlink:href="#g"/>
  <use x="408.398438" y="593.734375" xlink:href="#h"/>
  <use x="412.253906" y="593.734375" xlink:href="#t"/>
  <use x="420.078125" y="593.734375" xlink:href="#s"/>
  <use x="298.273438" y="604.980469" xlink:href="#r"/>
  <use x="303.164062" y="604.980469" xlink:href="#b"/>
  <use x="308.710938" y="604.980469" xlink:href="#d"/>
  <use x="316.4375" y="604.980469" xlink:href="#q"/>
  <use x="332.070313" y="604.980469" xlink:href="#c"/>
  <use x="337.445312" y="604.980469" xlink:href="#p"/>
  <use x="345.449219" y="604.980469" xlink:href="#a"/>
  <use x="356.992188" y="604.980469" xlink:href="#o"/>
  <use x="366.402344" y="604.980469" xlink:href="#d"/>
  <use x="374.128906" y="604.980469" xlink:href="#e"/>
  <use x="382.132813" y="604.980469" xlink:href="#g"/>
  <use x="394.054688" y="604.980469" xlink:href="#n"/>
  <use x="402.292969" y="604.980469" xlink:href="#b"/>
  <use x="407.839844" y="604.980469" xlink:href="#d"/>
  <use x="415.566406" y="604.980469" xlink:href="#m"/>
  <use x="419.421875" y="604.980469" xlink:href="#a"/>
  <use x="427.046875" y="604.980469" xlink:href="#l"/>
  <use x="433.710938" y="604.980469" xlink:href="#c"/>
 </g>
</svg>
