<?xml version="1.0" encoding="UTF-8"?>
<svg width="700pt" height="700pt" version="1.1" viewBox="0 0 700 700" xmlns="http://www.w3.org/2000/svg" xmlns:xlink="http://www.w3.org/1999/xlink">
 <defs>
  <symbol id="g" overflow="visible">
   <path d="m2.2031-0.125c-0.11719 0.054688-0.23438 0.09375-0.35938 0.125-0.11719 0.03125-0.24219 0.046875-0.375 0.046875-0.40625 0-0.72656-0.10938-0.95312-0.32812-0.23047-0.22656-0.34375-0.53516-0.34375-0.92188 0-0.38281 0.11328-0.6875 0.34375-0.90625 0.22656-0.22656 0.54688-0.34375 0.95312-0.34375 0.13281 0 0.25781 0.015625 0.375 0.046875 0.125 0.03125 0.24219 0.078125 0.35938 0.14062v0.5c-0.11719-0.082031-0.23047-0.14062-0.34375-0.17188-0.10547-0.039062-0.21875-0.0625-0.34375-0.0625-0.21875 0-0.39062 0.074219-0.51562 0.21875-0.125 0.13672-0.1875 0.32812-0.1875 0.57812s0.0625 0.44922 0.1875 0.59375c0.125 0.13672 0.29688 0.20312 0.51562 0.20312 0.125 0 0.23828-0.015625 0.34375-0.046875 0.11328-0.039063 0.22656-0.097656 0.34375-0.17188z"/>
  </symbol>
  <symbol id="a" overflow="visible">
   <path d="m1.6094-1.3125c-0.042969-0.019531-0.089844-0.035156-0.14062-0.046875-0.054688-0.007813-0.10547-0.015625-0.15625-0.015625-0.14844 0-0.26172 0.046875-0.34375 0.14062-0.074219 0.09375-0.10938 0.23047-0.10938 0.40625v0.82812h-0.57812v-1.7969h0.57812v0.29688c0.070313-0.125 0.15625-0.21094 0.25-0.26562 0.09375-0.050781 0.20703-0.078125 0.34375-0.078125h0.0625c0.019531 0 0.050781 0.007812 0.09375 0.015625z"/>
  </symbol>
  <symbol id="b" overflow="visible">
   <path d="m2.0781-0.90625v0.17188h-1.3438c0.007813 0.125 0.054687 0.22656 0.14062 0.29688 0.082031 0.0625 0.20312 0.09375 0.35938 0.09375 0.11328 0 0.23438-0.015625 0.35938-0.046875 0.13281-0.03125 0.26562-0.082031 0.39062-0.15625v0.4375c-0.13672 0.054688-0.27344 0.089844-0.40625 0.10938-0.13672 0.03125-0.27344 0.046875-0.40625 0.046875-0.32422 0-0.57812-0.082031-0.76562-0.25-0.17969-0.16406-0.26562-0.39844-0.26562-0.70312 0-0.28906 0.085937-0.51953 0.26562-0.6875 0.17578-0.16406 0.42188-0.25 0.73438-0.25 0.28125 0 0.50391 0.089844 0.67188 0.26562 0.17578 0.16797 0.26562 0.39062 0.26562 0.67188zm-0.59375-0.1875c0-0.11328-0.03125-0.20312-0.09375-0.26562-0.0625-0.070313-0.14844-0.10938-0.25-0.10938-0.11719 0-0.21094 0.03125-0.28125 0.09375-0.0625 0.0625-0.10547 0.15625-0.125 0.28125z"/>
  </symbol>
  <symbol id="c" overflow="visible">
   <path d="m1.0781-0.8125c-0.11719 0-0.20312 0.023438-0.26562 0.0625-0.0625 0.042969-0.09375 0.10547-0.09375 0.1875 0 0.074219 0.023438 0.13281 0.078125 0.17188 0.050781 0.03125 0.11719 0.046875 0.20312 0.046875 0.10156 0 0.19141-0.035156 0.26562-0.10938 0.082031-0.070313 0.125-0.17188 0.125-0.29688v-0.0625zm0.89062-0.21875v1.0312h-0.57812v-0.26562c-0.085937 0.10547-0.17188 0.18359-0.26562 0.23438s-0.21484 0.078125-0.35938 0.078125c-0.1875 0-0.33984-0.050781-0.45312-0.15625-0.11719-0.11328-0.17188-0.25781-0.17188-0.4375 0-0.20703 0.070313-0.35938 0.21875-0.45312 0.14453-0.10156 0.375-0.15625 0.6875-0.15625h0.34375v-0.046875c0-0.09375-0.039063-0.16016-0.10938-0.20312-0.074219-0.039062-0.1875-0.0625-0.34375-0.0625-0.125 0-0.24219 0.015625-0.34375 0.046875-0.10547 0.023437-0.20312 0.058594-0.29688 0.10938v-0.4375c0.125-0.03125 0.25-0.050781 0.375-0.0625 0.125-0.019531 0.25-0.03125 0.375-0.03125 0.32031 0 0.55469 0.0625 0.70312 0.1875 0.14453 0.125 0.21875 0.33594 0.21875 0.625z"/>
  </symbol>
  <symbol id="e" overflow="visible">
   <path d="m0.90625-2.3125v0.51562h0.59375v0.40625h-0.59375v0.76562c0 0.085938 0.015625 0.14062 0.046875 0.17188s0.097656 0.046875 0.20312 0.046875h0.29688v0.40625h-0.5c-0.23047 0-0.39062-0.046875-0.48438-0.14062s-0.14062-0.25391-0.14062-0.48438v-0.76562h-0.28125v-0.40625h0.28125v-0.51562z"/>
  </symbol>
  <symbol id="j" overflow="visible">
   <path d="m1.5-1.5312v-0.96875h0.57812v2.5h-0.57812v-0.26562c-0.074219 0.11719-0.16406 0.19922-0.26562 0.25-0.09375 0.039062-0.20312 0.0625-0.32812 0.0625-0.21875 0-0.40234-0.085938-0.54688-0.26562-0.14844-0.17578-0.21875-0.40625-0.21875-0.6875 0-0.26953 0.070313-0.49219 0.21875-0.67188 0.14453-0.17578 0.32812-0.26562 0.54688-0.26562 0.125 0 0.23438 0.027344 0.32812 0.078125 0.10156 0.042969 0.19141 0.12109 0.26562 0.23438zm-0.375 1.1562c0.125 0 0.21875-0.039062 0.28125-0.125 0.0625-0.09375 0.09375-0.22656 0.09375-0.40625 0-0.16406-0.03125-0.28906-0.09375-0.375-0.0625-0.09375-0.15625-0.14062-0.28125-0.14062s-0.21875 0.046875-0.28125 0.14062c-0.0625 0.085938-0.09375 0.21094-0.09375 0.375 0 0.17969 0.03125 0.3125 0.09375 0.40625 0.0625 0.085938 0.15625 0.125 0.28125 0.125z"/>
  </symbol>
  <symbol id="f" overflow="visible">
   <path d="m1.2344-0.375c0.125 0 0.21875-0.039062 0.28125-0.125 0.0625-0.09375 0.09375-0.22656 0.09375-0.40625 0-0.16406-0.03125-0.28906-0.09375-0.375-0.0625-0.09375-0.15625-0.14062-0.28125-0.14062s-0.21875 0.046875-0.28125 0.14062c-0.0625 0.085938-0.09375 0.21094-0.09375 0.375 0 0.17969 0.03125 0.3125 0.09375 0.40625 0.0625 0.085938 0.15625 0.125 0.28125 0.125zm-0.375-1.1562c0.070313-0.11328 0.15625-0.19141 0.25-0.23438 0.10156-0.050781 0.21875-0.078125 0.34375-0.078125 0.21875 0 0.39844 0.089844 0.54688 0.26562 0.14453 0.17969 0.21875 0.40234 0.21875 0.67188 0 0.28125-0.074219 0.51172-0.21875 0.6875-0.14844 0.17969-0.32812 0.26562-0.54688 0.26562-0.125 0-0.24219-0.027344-0.34375-0.078125-0.09375-0.050781-0.17969-0.12891-0.25-0.23438v0.26562h-0.57812v-2.5h0.57812z"/>
  </symbol>
  <symbol id="i" overflow="visible">
   <path d="m0.046875-1.7969h0.5625l0.48438 1.2188 0.42188-1.2188h0.57812l-0.76562 1.9688c-0.074219 0.19531-0.16406 0.33594-0.26562 0.42188-0.10547 0.082031-0.24219 0.125-0.40625 0.125h-0.32812v-0.39062h0.1875c0.09375 0 0.16016-0.015625 0.20312-0.046875 0.050781-0.03125 0.085938-0.085938 0.10938-0.15625l0.015625-0.0625z"/>
  </symbol>
  <symbol id="h" overflow="visible">
   <path d="m1.7656-0.4375h-0.96875l-0.15625 0.4375h-0.625l0.89062-2.4062h0.73438l0.89062 2.4062h-0.625zm-0.8125-0.45312h0.65625l-0.32812-0.95312z"/>
  </symbol>
  <symbol id="u" overflow="visible">
   <path d="m0.28125-2.5h0.57812v2.5h-0.57812z"/>
  </symbol>
  <symbol id="t" overflow="visible">
   <path d="m0.046875-1.7969h0.57812l0.45312 1.2344 0.4375-1.2344h0.57812l-0.70312 1.7969h-0.625z"/>
  </symbol>
  <symbol id="d" overflow="visible">
   <path d="m1.1406-1.4375c-0.13672 0-0.24219 0.046875-0.3125 0.14062-0.0625 0.09375-0.09375 0.22656-0.09375 0.39062 0 0.17969 0.03125 0.3125 0.09375 0.40625 0.070313 0.09375 0.17578 0.14062 0.3125 0.14062 0.125 0 0.21875-0.046875 0.28125-0.14062s0.09375-0.22656 0.09375-0.40625c0-0.16406-0.03125-0.29688-0.09375-0.39062s-0.15625-0.14062-0.28125-0.14062zm0-0.40625c0.30078 0 0.53906 0.085938 0.71875 0.25 0.17578 0.16797 0.26562 0.39844 0.26562 0.6875 0 0.30469-0.089844 0.53906-0.26562 0.70312-0.17969 0.16797-0.41797 0.25-0.71875 0.25-0.3125 0-0.55859-0.082031-0.73438-0.25-0.17969-0.16406-0.26562-0.39844-0.26562-0.70312 0-0.28906 0.085937-0.51953 0.26562-0.6875 0.17578-0.16406 0.42188-0.25 0.73438-0.25z"/>
  </symbol>
  <symbol id="s" overflow="visible">
   <path d="m1.4688-2.5v0.375h-0.32812c-0.085937 0-0.14062 0.015625-0.17188 0.046875s-0.046875 0.085937-0.046875 0.15625v0.125h0.5v0.40625h-0.5v1.3906h-0.57812v-1.3906h-0.28125v-0.40625h0.28125v-0.125c0-0.19531 0.050781-0.34375 0.15625-0.4375 0.11328-0.09375 0.28516-0.14062 0.51562-0.14062z"/>
  </symbol>
  <symbol id="r" overflow="visible">
   <path d="m1.9531-1.5c0.070313-0.11328 0.15625-0.19531 0.25-0.25 0.10156-0.0625 0.21094-0.09375 0.32812-0.09375 0.20703 0 0.36328 0.0625 0.46875 0.1875 0.11328 0.125 0.17188 0.3125 0.17188 0.5625v1.0938h-0.57812v-0.9375-0.046875-0.0625c0-0.125-0.023438-0.21094-0.0625-0.26562-0.03125-0.0625-0.089844-0.09375-0.17188-0.09375-0.10547 0-0.1875 0.046875-0.25 0.14062-0.0625 0.085937-0.09375 0.21094-0.09375 0.375v0.89062h-0.57812v-0.9375c0-0.19531-0.023438-0.32031-0.0625-0.375-0.03125-0.0625-0.089844-0.09375-0.17188-0.09375-0.11719 0-0.20312 0.046875-0.26562 0.14062-0.054688 0.085937-0.078125 0.21094-0.078125 0.375v0.89062h-0.57812v-1.7969h0.57812v0.26562c0.0625-0.10156 0.14062-0.17969 0.23438-0.23438 0.09375-0.050781 0.19531-0.078125 0.3125-0.078125 0.125 0 0.23438 0.03125 0.32812 0.09375 0.09375 0.054688 0.16406 0.13672 0.21875 0.25z"/>
  </symbol>
  <symbol id="q" overflow="visible">
   <path d="m2.0938-1.0938v1.0938h-0.57812v-0.84375c0-0.15625-0.007813-0.25781-0.015625-0.3125-0.011719-0.0625-0.023438-0.10938-0.03125-0.14062-0.03125-0.03125-0.070312-0.054687-0.10938-0.078125-0.03125-0.019531-0.074219-0.03125-0.125-0.03125-0.11719 0-0.21094 0.046875-0.28125 0.14062-0.0625 0.085937-0.09375 0.21094-0.09375 0.375v0.89062h-0.57812v-2.5h0.57812v0.96875c0.082031-0.11328 0.17188-0.19141 0.26562-0.23438 0.10156-0.050781 0.21094-0.078125 0.32812-0.078125 0.20703 0 0.36328 0.0625 0.46875 0.1875 0.11328 0.125 0.17188 0.3125 0.17188 0.5625z"/>
  </symbol>
  <symbol id="p" overflow="visible">
   <path d="m0.29688-2.4062h0.70312l0.875 1.6562v-1.6562h0.57812v2.4062h-0.6875l-0.875-1.6562v1.6562h-0.59375z"/>
  </symbol>
  <symbol id="o" overflow="visible">
   <path d="m0.25-0.70312v-1.0938h0.59375v0.17188c0 0.10547-0.007812 0.23047-0.015625 0.375v0.29688c0 0.14844 0.003906 0.25 0.015625 0.3125 0.007812 0.0625 0.023438 0.10938 0.046875 0.14062 0.019531 0.03125 0.046875 0.058594 0.078125 0.078125 0.039062 0.023437 0.085938 0.03125 0.14062 0.03125 0.11328 0 0.20703-0.046875 0.28125-0.14062 0.070313-0.09375 0.10938-0.21875 0.10938-0.375v-0.89062h0.5625v1.7969h-0.5625v-0.26562c-0.09375 0.10547-0.1875 0.18359-0.28125 0.23438s-0.20312 0.078125-0.32812 0.078125c-0.21094 0-0.37109-0.0625-0.48438-0.1875-0.10547-0.13281-0.15625-0.32031-0.15625-0.5625z"/>
  </symbol>
  <symbol id="n" overflow="visible">
   <path d="m2.0938-1.0938v1.0938h-0.57812v-0.84375c0-0.15625-0.007813-0.25781-0.015625-0.3125-0.011719-0.0625-0.023438-0.10938-0.03125-0.14062-0.03125-0.03125-0.070312-0.054687-0.10938-0.078125-0.03125-0.019531-0.074219-0.03125-0.125-0.03125-0.11719 0-0.21094 0.046875-0.28125 0.14062-0.0625 0.085937-0.09375 0.21094-0.09375 0.375v0.89062h-0.57812v-1.7969h0.57812v0.26562c0.082031-0.11328 0.17188-0.19141 0.26562-0.23438 0.10156-0.050781 0.21094-0.078125 0.32812-0.078125 0.20703 0 0.36328 0.0625 0.46875 0.1875 0.11328 0.125 0.17188 0.3125 0.17188 0.5625z"/>
  </symbol>
  <symbol id="m" overflow="visible">
   <path d="m0.29688-2.4062h1.0312c0.3125 0 0.54688 0.070312 0.70312 0.20312 0.16406 0.13672 0.25 0.32812 0.25 0.57812 0 0.26172-0.085938 0.46094-0.25 0.59375-0.15625 0.13672-0.39062 0.20312-0.70312 0.20312h-0.40625v0.82812h-0.625zm0.625 0.45312v0.67188h0.34375c0.125 0 0.21875-0.023438 0.28125-0.078125 0.0625-0.0625 0.09375-0.14844 0.09375-0.26562 0-0.10156-0.03125-0.17969-0.09375-0.23438-0.0625-0.0625-0.15625-0.09375-0.28125-0.09375z"/>
  </symbol>
  <symbol id="l" overflow="visible">
   <path d="m0.28125-1.7969h0.57812v1.7656c0 0.23828-0.0625 0.42188-0.1875 0.54688-0.11719 0.13281-0.28125 0.20312-0.5 0.20312h-0.28125v-0.39062h0.09375c0.11328 0 0.19141-0.027344 0.23438-0.078125 0.039062-0.042969 0.0625-0.13672 0.0625-0.28125zm0-0.70312h0.57812v0.46875h-0.57812z"/>
  </symbol>
  <symbol id="k" overflow="visible">
   <path d="m1.7344-1.75v0.46875c-0.085937-0.050781-0.16797-0.085938-0.25-0.10938-0.074219-0.03125-0.15234-0.046875-0.23438-0.046875-0.15625 0-0.28125 0.046875-0.375 0.14062s-0.14062 0.22656-0.14062 0.39062c0 0.17969 0.046875 0.3125 0.14062 0.40625s0.21875 0.14062 0.375 0.14062c0.09375 0 0.17578-0.015625 0.25-0.046875 0.082031-0.03125 0.16016-0.070312 0.23438-0.125v0.48438c-0.09375 0.03125-0.1875 0.050781-0.28125 0.0625-0.09375 0.019531-0.18359 0.03125-0.26562 0.03125-0.33594 0-0.59375-0.082031-0.78125-0.25-0.17969-0.16406-0.26562-0.39844-0.26562-0.70312 0-0.28906 0.085937-0.51953 0.26562-0.6875 0.1875-0.16406 0.44531-0.25 0.78125-0.25 0.09375 0 0.17969 0.011719 0.26562 0.03125 0.09375 0.011719 0.1875 0.03125 0.28125 0.0625z"/>
  </symbol>
 </defs>
 <g>
  <path d="m284.87 363.96c-0.72266-0.13281-1.5156-0.13281-2.2383-0.13281-2.4375 0-5.0039 0.46094-7.5742 1.4492-4.7422 1.7773-8.8242 4.8086-11.789 8.8242-2.9648 3.8867-4.4102 8.2305-4.082 12.184 0.19922 2.3711 1.25 6.7188 6.1914 9.0234 1.7773 0.78906 3.8867 1.25 6.1914 1.25 2.5039 0 5.1367-0.46094 7.5742-1.4492 4.543-1.7109 8.7578-4.8711 11.789-8.957 2.9648-4.0156 4.4102-8.1641 4.1484-12.051-0.32812-4.082-2.6328-7.375-6.3203-9.0859-1.2539-0.52734-2.5039-0.85938-3.8906-1.0547zm-20.082 21.469c-0.26172-3.0273 0.98828-6.5859 3.3594-9.6797 2.3047-3.0938 5.4648-5.4648 8.8906-6.7812 1.7109-0.66016 3.3594-0.98828 4.8711-0.98828 1.25 0 2.4375 0.26172 3.4258 0.72266 2.3047 1.0547 3.7539 3.2266 3.9492 6.1914 0.26172 3.0938-0.92188 6.4531-3.293 9.6133-2.3047 3.0938-5.5977 5.5977-8.957 6.8477-1.7109 0.66016-3.3594 0.98828-4.8711 0.98828-0.46094 0-0.85547 0-1.25-0.066406-0.78906-0.13281-1.5156-0.32812-2.1719-0.59375-2.3086-1.1211-3.7578-3.3594-3.9531-6.2539z"/>
  <path d="m383.71 280.66-0.72266-0.32812c-1.3164-0.59375-2.4375-1.4492-3.4883-2.3711l-0.52734-0.52734-5.5977 7.8359 0.46094 0.39453c1.1211 0.92188 2.1055 1.9766 2.8984 3.2266l0.52734 0.78906z"/>
  <path d="m410.32 237.86c-1.0547 0.19922-1.9766 0.26172-2.832 0.26172-0.59375 0-1.25-0.066407-1.8438-0.13281l-0.52734-0.066406-2.043 4.6758 0.59375 0.26172c1.3164 0.59375 2.5039 1.3828 3.5547 2.3711l0.66016 0.59375 3.6211-8.2305z"/>
  <path d="m417.37 197.36 0.78906 0.19922 0.72266-11.262-0.85547 0.19922c-0.92188 0.19922-1.9102 0.26172-2.832 0.26172-0.52734 0-0.98828 0-1.5156-0.066406l-0.66016-0.066406-0.59375 9.4844 0.32812 0.66016h0.72266c1.2578 0.0625 2.5781 0.19531 3.8945 0.58984z"/>
  <path d="m372.12 287.44-1.1211-0.85547 0.39453 24.496 1.1836-1.6445c0.98828-1.3828 1.7109-2.5664 2.2383-3.8203 2.043-4.4102 2.4375-8.7578 1.25-12.512-0.65234-2.2383-2.0352-4.1484-3.9453-5.6641z"/>
  <path d="m439.95 185.44h6.5859c2.043 0 3.6875-1.6445 3.6875-3.6875v-39.773c0-2.043-1.6445-3.6875-3.6875-3.6875h-6.5859c-2.043 0-3.6875 1.6445-3.6875 3.6875v39.773c0 2.043 1.6445 3.6875 3.6875 3.6875z"/>
  <path d="m464.38 174.9c1.5156-1.9766 2.5664-11.984 1.582-19.887-0.72266-5.6641-1.9766-6.6523-2.2383-6.8477l-0.13281-0.066407-10.93-1.1836v29.371l11.523-1.1836z"/>
  <path d="m416.57 145.66c1.3164 0.39453 2.5039 0.92188 3.6211 1.6445 4.082 2.5039 7.3086 6.5195 9.2188 11.656 1.9102 5.1367 2.1719 10.535 0.85547 15.344-0.32812 1.1836-0.78906 2.3047-1.3164 3.4883l-0.52734 1.0547 5.5312-0.52734 0.003907-33.453-19.031-2.043 1.4492 2.7656z"/>
  <path d="m420.26 162.72c-1.1211-3.0273-3.0938-5.5977-5.3984-6.9805-0.98828-0.59375-1.9766-0.98828-2.8984-1.1211-0.26172 0-0.46094-0.066407-0.72266-0.066407-0.66016 0-1.25 0.13281-1.8438 0.39453-2.043 0.85547-3.0273 3.0273-3.4883 4.6758-0.78906 2.7656-0.59375 6.125 0.52734 9.1523 1.1211 3.0273 3.1602 5.6641 5.4648 7.0469 1.25 0.72266 2.4375 1.1211 3.5547 1.1211 0.66016 0 1.25-0.13281 1.8438-0.39453 1.582-0.72266 2.832-2.3047 3.4883-4.6758 0.85547-2.6992 0.66016-6.0586-0.52734-9.1523z"/>
  <path d="m406.96 148.23c-3.6875 1.6445-6.5859 5.2031-7.9023 9.8125-1.25 4.4766-1.0547 9.2188 0.66016 13.762 1.7109 4.543 4.6094 8.2305 8.2969 10.469 2.2383 1.3828 4.7422 2.1055 7.1797 2.1055 1.6445 0 3.2266-0.32812 4.6758-0.98828 3.7539-1.6445 6.7188-5.2695 8.0352-9.8789 1.1836-4.2812 0.92188-9.1523-0.78906-13.828-1.7109-4.6094-4.543-8.2305-8.1641-10.406-1.7109-1.0547-3.5547-1.7109-5.4648-1.9766-0.59375-0.066406-1.1836-0.13281-1.7109-0.13281-1.7227 0.074219-3.3008 0.40625-4.8164 1.0625zm8.6289 31.215c-0.32812 0-0.66016 0-1.0547-0.066406-1.25-0.19922-2.5039-0.66016-3.8203-1.4492-2.7656-1.6445-5.1367-4.6758-6.4531-8.2969-1.3164-3.5547-1.5156-7.375-0.59375-10.668 0.85547-3.0938 2.5664-5.2695 4.8711-6.2578 0.85547-0.39453 1.7773-0.59375 2.7656-0.59375 1.582 0 3.2266 0.52734 4.8711 1.5156 2.832 1.7109 5.0703 4.6094 6.4531 8.1641 1.3164 3.6211 1.582 7.5078 0.66016 10.734-0.85547 3.0938-2.5664 5.2695-4.8086 6.2578-0.98438 0.46094-1.9688 0.66016-2.8906 0.66016z"/>
  <path d="m407.23 135.06c-0.78906 0.46094-1.6445 0.78906-2.5664 1.0547l-0.78906 0.26172 4.7422 8.8242 0.46094-0.066406c0.85547-0.13281 1.7109-0.19922 2.6328-0.19922l1.582 0.066406-5.3984-10.207z"/>
  <path d="m236.8 174.51 10.996 1.1836v-29.238l-10.008 1.0547c-0.66016 0-1.9766 1.4492-2.6992 6.8477-1.0547 7.9023-0.066406 17.977 1.5156 19.953z"/>
  <path d="m300.74 353.49-10.34 9.6797 0.72266 0.46094c1.1836 0.72266 2.2383 1.6445 3.1602 2.6992l0.46094 0.52734 10.074-9.418-0.66016-0.46094c-1.1836-0.85547-2.1719-1.7773-2.9648-2.8984z"/>
  <path d="m253.86 185.44h6.5859c2.043 0 3.6875-1.6445 3.6875-3.6875v-39.773c0-2.043-1.6445-3.6875-3.6875-3.6875h-6.5859c-2.043 0-3.6875 1.6445-3.6875 3.6875v39.773c0.066406 2.043 1.7148 3.6875 3.6875 3.6875z"/>
  <path d="m392.61 98.512c-1.582 0-3.0938 0.26172-4.543 0.85547l-1.6445 0.66016 2.5664 0.92188c0.66016 0.26172 1.3828 0.52734 2.043 0.72266 1.3164 0.39453 2.4375 1.25 3.1602 2.3711l0.13281 0.19922 0.59375 0.13281c0.19922 0.066406 0.39453 0.066406 0.59375 0.13281 3.1602 0.98828 6.1914 3.2266 8.4961 6.3867 2.3047 3.1602 3.6211 6.8477 3.6875 10.207 0.066406 4.082-1.582 6.1914-2.8984 7.2422-1.25 0.98828-2.6992 1.4492-4.4766 1.4492-0.39453 0-0.85547 0-1.3164-0.066407-0.59375-0.066406-1.1836-0.19922-1.8438-0.39453-3.1602-0.92188-6.2578-3.293-8.5625-6.4531-2.3047-3.0938-3.5547-6.7188-3.6211-10.141 0-0.19922 0-0.39453 0.066406-0.52734l0.066407-0.39453 0.066406-0.52734-1.25-0.46094c-0.85547-0.32812-1.7109-0.59375-2.5664-0.92188l-0.78906-0.32812-0.066406 0.85547c-0.066406 0.59375-0.13281 1.1836-0.13281 1.7773 0.066406 4.6094 1.6445 9.1523 4.543 13.172 2.8984 4.0156 6.8477 6.9141 11.062 8.1641 0.85547 0.26172 1.6445 0.46094 2.5039 0.52734 0.59375 0.066406 1.25 0.13281 1.9766 0.13281 2.7656 0 5.2031-0.78906 7.2422-2.4375 3.1602-2.5039 4.9375-6.6523 4.8711-11.391-0.066406-4.4102-1.7109-9.1523-4.7422-13.234-2.9648-4.082-6.7188-6.9141-10.867-8.1641-0.78906-0.26172-1.582-0.39453-2.4375-0.52734-0.66406 0.125-1.3203 0.058594-1.9141 0.058594z"/>
  <path d="m564.87 334.66-0.13281-1.1211-0.92188 0.59375c-9.0859 6.125-51.496 39.773-63.219 49.652l-0.78906 0.66016 0.92188 0.46094c1.3164 0.66016 2.6328 1.582 3.6211 2.7656 4.3477 4.8711 3.4883 12.773-2.3711 21.664-7.2422 10.996-48.203 30.949-82.645 40.301-12.906 3.4883-21.535 5.0703-28.117 5.0703-11.195 0-16.988-4.8086-19.492-16-1.1211-4.8711-1.8438-31.41-1.9766-54.262-0.26172-41.684-0.92188-86.332-2.043-140.59-0.13281-15.738 0-26.605 0.13281-39.445v-1.25c0.066406-5.2031 0.13281-10.801 0.19922-17.188 0-0.59375 0.46094-1.1211 1.1211-1.1836l33.781-3.4258-0.85547-0.98828c-2.043-2.3047-3.6211-4.8711-4.6758-7.7031-1.8438-5.0039-2.1055-10.273-0.72266-15.277 1.4492-5.1367 4.6758-9.1523 8.8906-11.195l0.66016-0.32812-2.3047-4.2812-36.152-3.8867c-0.59375-0.066406-1.0547-0.59375-1.0547-1.1836l0.066407-23.047c0-0.46094 0.32812-0.92188 0.78906-1.1211 2.3711-0.98828 4.8086-2.2383 7.5078-3.9492l0.98828-0.66016-1.0547-0.52734c-7.1133-3.4883-13.5-8.1016-19.031-13.566l-0.26172-0.26172-0.32812 0.066406c-1.8438 0.39453-3.4258 0.59375-5.0039 0.59375-6.3203 0-12.312-2.5039-16.727-6.9805-4.4766-4.4766-6.9141-10.406-6.8477-16.727 0.066406-12.973 10.602-23.574 23.707-23.574 6.3203 0 12.25 2.5039 16.66 6.9805 4.4766 4.4766 6.9141 10.406 6.8477 16.727 0 6.3203-2.5664 12.312-7.2422 16.859l-0.52734 0.52734 0.52734 0.46094c4.7422 4.2148 10.141 7.6406 16.594 10.469l0.32812 0.13281 0.32812-0.19922c0.92188-0.66016 1.9766-1.25 3.0938-1.6445l0.19922-0.066406 0.13281-0.13281c5.4648-7.4414 8.3633-16.199 8.3633-25.285 0-11.918-4.543-23.113-12.906-31.477-8.4297-8.4297-19.82-13.105-32.137-13.172-25.352 0-45.238 19.492-45.305 44.383-0.066406 17.848 10.996 33.914 28.117 40.961 0.46094 0.19922 0.72266 0.66016 0.72266 1.1211l-0.066406 23.047c0 0.59375-0.46094 1.1211-1.1211 1.1836l-66.707 6.8477v33.188l65.191 6.9141c0.59375 0.066407 1.0547 0.59375 1.0547 1.1836 0 6.1914 0.066406 11.59 0.066406 16.66v0.59375c0.066406 13.039 0.13281 24.363-0.13281 40.629-1.3828 54.262-2.2383 98.91-2.7656 140.59-0.26172 22.852-1.1211 49.387-2.2383 54.262-2.5664 11.129-8.3633 15.871-19.426 15.871-6.5859 0-15.344-1.582-28.316-5.2031-34.375-9.5469-75.203-29.699-82.379-40.695-5.8594-8.957-6.6523-16.859-2.3047-21.664 1.0547-1.1211 2.3047-2.1055 3.6875-2.6992l0.92188-0.46094-0.78906-0.66016c-11.656-9.9453-53.801-43.793-62.887-49.98l-0.92188-0.59375-0.13281 1.1211c-1.25 11.723 6.1914 70.922 9.2188 87.188l0.32812 1.6445 0.92188-1.3828c1.8438-2.8984 4.8711-4.4102 8.7578-4.4102 7.9688 0 18.898 6.3867 29.961 17.582 14.555 14.684 42.605 36.219 54.656 42.012 0.98828 0.46094 2.7656 1.3828 5.0703 2.5039 8.957 4.4766 25.551 12.773 32.926 15.277 7.9688 2.7656 48.27 16.988 59.465 27.066 0.85547 0.78906 1.8438 1.7773 2.8984 2.8984 2.8984 3.0273 6.4531 6.7812 9.418 7.2422v1.25h1.3203v-1.25c2.5664-0.52734 5.9258-3.7539 9.4844-7.3086 1.0547-1.0547 1.9766-2.043 2.832-2.7656 11.262-10.008 51.629-24.035 59.594-26.734 7.3086-2.5039 23.969-10.668 33.059-15.145 2.3047-1.1211 4.082-2.043 5.0703-2.4375 12.051-5.6641 40.234-27.129 54.855-41.684 11.062-11.062 21.996-17.383 29.961-17.383 3.8867 0 6.9805 1.5156 8.8242 4.4766l0.92188 1.3828 0.32812-1.6445c3.3555-16.406 11.125-75.539 9.9375-87.262z"/>
  <path d="m234.56 429.48 0.85547 0.39453 0.066406-0.98828c0.13281-1.9766 0.72266-4.0156 1.582-5.9258 1.6445-3.4258 4.2148-6.3867 7.3086-8.2969 2.1719-1.3164 4.2812-1.9766 6.2578-1.9766 0.66016 0 1.25 0.066406 1.8438 0.19922 2.5039 0.59375 4.3477 2.5039 5.1367 5.332 0.85547 2.9648 0.46094 6.5195-1.1836 10.008-1.3164 2.6992-3.293 5.2695-5.7305 7.1797l-0.92188 0.72266 1.0547 0.46094c1.1211 0.46094 2.2383 0.85547 3.293 1.3164l0.39453 0.13281 0.32812-0.26172c2.832-2.3711 5.1367-5.3984 6.7188-8.7578 2.1055-4.4766 2.6328-8.7578 1.5156-12.512-1.1836-3.9492-4.1484-6.7812-8.1016-7.7695-0.46094-0.13281-0.92188-0.19922-1.3828-0.26172-0.59375-0.066407-1.25-0.13281-1.9102-0.13281-3.293 0-6.7812 1.0547-10.074 3.0938-4.2812 2.6328-7.6406 6.3203-9.7461 10.734-0.66016 1.3828-1.1836 2.9648-1.582 4.7422l-0.13281 0.52734 0.46094 0.19922c1.4453 0.65234 2.6992 1.2461 3.9492 1.8398z"/>
  <path d="m321.22 330.71c1.25-0.32812 2.5039-0.46094 3.6211-0.46094 0.98828 0 1.9102 0.13281 2.7656 0.32812l0.85547 0.26172 0.066406-3.8203-0.066406-0.59375-0.52734-0.13281c-0.78906-0.13281-1.7109-0.19922-2.5664-0.19922-1.8438 0-3.6875 0.26172-5.5977 0.72266-4.9375 1.25-9.418 3.8203-12.906 7.375-3.4258 3.5547-5.4648 7.7031-5.6641 11.59-0.13281 2.3711 0.32812 6.8477 5.0039 9.6133 2.2383 1.3164 5.0703 2.043 8.2969 2.043 1.7773 0 3.6211-0.19922 5.4648-0.66016 2.6992-0.66016 5.332-1.8438 7.8359-3.4258l0.32812-0.19922 0.066407-6.0586-1.1211 0.98828c-2.5664 2.3047-5.6641 4.0156-8.625 4.7422-1.3164 0.32813-2.5664 0.52734-3.6875 0.52734-0.52734 0-0.98828 0-1.4492-0.066406-1.1836-0.13281-2.2383-0.52734-3.0938-1.0547-2.1719-1.3164-3.293-3.6875-3.1602-6.5859 0.13281-3.0273 1.8438-6.3867 4.6094-9.2188 2.5039-2.8203 5.9961-4.793 9.5508-5.7148z"/>
  <path d="m389.12 109.97c1.5156 0 2.8984-0.85547 3.3594-2.1055 0.32813-0.92188 0.13281-1.7109-0.13281-2.1719-0.39453-0.78906-1.1836-1.4492-2.1055-1.7109-15.805-5.0703-27.195-13.5-35.758-26.34-0.52734-0.85547-1.5156-1.5156-2.6328-1.6445h-0.32812c-1.4492 0-2.5664 0.59375-3.2266 1.582-0.59375 0.98828-0.59375 2.1719 0.13281 3.0938 9.418 14.094 22.324 23.641 39.512 29.172 0.38672 0.125 0.78125 0.125 1.1797 0.125z"/>
  <path d="m259.91 394.25-5.0703 11.262v0.78906l0.78906 0.19922c1.25 0.32812 2.5039 0.85547 3.6875 1.5156l0.66016 0.39453 4.8711-10.668-0.59375-0.26172c-1.3164-0.59375-2.5664-1.4492-3.6211-2.5039z"/>
  <path d="m425.86 217.31c0.72266-4.7422-0.066406-9.0859-2.1719-12.445-1.9766-3.0273-5.0703-5.0703-8.5625-5.5312-0.52734-0.066406-1.0547-0.13281-1.7109-0.13281-4.1484 0-8.5625 2.1055-12.051 5.7305-3.3594 3.4883-5.5312 7.8359-6.2578 12.578-0.72266 4.6758 0.13281 9.1523 2.3047 12.578 1.9766 3.0938 5.0039 5.0703 8.4297 5.5312 0.52734 0.066406 1.0547 0.13281 1.6445 0.13281h0.066406c4.2148 0 8.7578-2.1055 12.184-5.7305 3.1641-3.4258 5.3359-7.9023 6.125-12.711zm-17.316 13.766c-0.32812 0-0.66016 0-0.92188-0.066407-2.1719-0.32812-4.082-1.6445-5.5312-3.8203-1.7109-2.6328-2.3047-6.2578-1.7773-10.074 0.59375-3.6875 2.2383-7.1797 4.6758-9.7461 2.3047-2.3711 4.8086-3.6211 7.3086-3.6211v-0.66016l0.066406 0.66016c2.5664 0 4.8711 1.3828 6.4531 3.8867 1.7109 2.6328 2.3711 6.1914 1.7773 9.9453s-2.3047 7.3086-4.6758 9.8125c-2.3047 2.4297-4.8086 3.6836-7.375 3.6836z"/>
  <path d="m389.45 279.34c3.6875 0 7.6406-1.4492 10.996-4.0156 3.7539-2.832 6.6523-6.9805 8.1641-11.656 1.5156-4.6094 1.4492-8.957-0.13281-12.578-1.7109-3.8203-5.0039-6.3867-9.1523-7.0469-0.59375-0.066407-1.25-0.13281-1.9102-0.13281-3.6875 0-7.5742 1.4492-10.996 4.0156-3.8867 2.9648-6.7812 6.9805-8.2305 11.523-1.5156 4.543-1.3828 9.0234 0.19922 12.711 0.98828 2.2383 3.4883 6.1914 9.2188 7.0469 0.59375 0.070313 1.25 0.13281 1.8438 0.13281zm-5.9922-19.492c1.1836-3.5547 3.3594-6.7188 6.2578-8.8906 2.2383-1.7109 4.543-2.6328 6.7188-2.6328 0.32812 0 0.72266 0 1.1211 0.066406 2.5664 0.39453 4.6094 2.043 5.793 4.7422 1.25 2.8984 1.3164 6.4531 0.13281 10.074-1.1836 3.6211-3.4883 6.8477-6.2578 9.0234-2.2383 1.7109-4.543 2.6328-6.7188 2.6328-0.32812 0-0.72266 0-1.0547-0.066406-2.6328-0.39453-4.6758-2.043-5.8594-4.8086-1.3203-2.7617-1.3203-6.4492-0.13281-10.141z"/>
  <use x="70" y="569.878906" xlink:href="#g"/>
  <use x="72.417969" y="569.878906" xlink:href="#a"/>
  <use x="74.039062" y="569.878906" xlink:href="#b"/>
  <use x="76.273438" y="569.878906" xlink:href="#c"/>
  <use x="78.496094" y="569.878906" xlink:href="#e"/>
  <use x="80.070312" y="569.878906" xlink:href="#b"/>
  <use x="82.300781" y="569.878906" xlink:href="#j"/>
  <use x="85.804688" y="569.878906" xlink:href="#f"/>
  <use x="88.164062" y="569.878906" xlink:href="#i"/>
  <use x="91.453125" y="569.878906" xlink:href="#h"/>
  <use x="94.003906" y="569.878906" xlink:href="#u"/>
  <use x="95.132812" y="569.878906" xlink:href="#t"/>
  <use x="97.277344" y="569.878906" xlink:href="#c"/>
  <use x="99.5" y="569.878906" xlink:href="#a"/>
  <use x="101.125" y="569.878906" xlink:href="#d"/>
  <use x="104.53125" y="569.878906" xlink:href="#g"/>
  <use x="106.949219" y="569.878906" xlink:href="#c"/>
  <use x="109.171875" y="569.878906" xlink:href="#f"/>
  <use x="111.527344" y="569.878906" xlink:href="#a"/>
  <use x="113.152344" y="569.878906" xlink:href="#b"/>
  <use x="115.382812" y="569.878906" xlink:href="#a"/>
  <use x="117.007812" y="569.878906" xlink:href="#c"/>
  <use x="70" y="573.171875" xlink:href="#s"/>
  <use x="71.433594" y="573.171875" xlink:href="#a"/>
  <use x="73.054688" y="573.171875" xlink:href="#d"/>
  <use x="75.316406" y="573.171875" xlink:href="#r"/>
  <use x="79.894531" y="573.171875" xlink:href="#e"/>
  <use x="81.46875" y="573.171875" xlink:href="#q"/>
  <use x="83.8125" y="573.171875" xlink:href="#b"/>
  <use x="87.191406" y="573.171875" xlink:href="#p"/>
  <use x="89.949219" y="573.171875" xlink:href="#d"/>
  <use x="92.210938" y="573.171875" xlink:href="#o"/>
  <use x="94.554688" y="573.171875" xlink:href="#n"/>
  <use x="98.042969" y="573.171875" xlink:href="#m"/>
  <use x="100.457031" y="573.171875" xlink:href="#a"/>
  <use x="102.082031" y="573.171875" xlink:href="#d"/>
  <use x="104.34375" y="573.171875" xlink:href="#l"/>
  <use x="105.472656" y="573.171875" xlink:href="#b"/>
  <use x="107.707031" y="573.171875" xlink:href="#k"/>
  <use x="109.65625" y="573.171875" xlink:href="#e"/>
 </g>
</svg>
