<svg version="1.1" xmlns="http://www.w3.org/2000/svg" style="display: block;" viewBox="0 0 2048 2048" width="1024" height="1024" preserveAspectRatio="none">
<path transform="translate(0,0)" fill="#f0f0f0" d="M 1015.42 330.42 C 1098.35 323.722 1158.18 403.024 1134.84 481.238 C 1124.13 517.136 1099.81 537.321 1068.1 554.08 C 1067.57 577.139 1069.13 599.5 1069.11 622.566 C 1117.8 624.437 1168.35 631.493 1216.95 633.283 C 1219.42 630.3 1223.06 626.125 1225.96 623.58 C 1236.84 613.882 1251.25 609.108 1265.77 610.386 C 1280.31 611.73 1293.59 619.467 1302.69 630.777 C 1311.98 642.288 1316.29 657.033 1314.66 671.736 C 1309.6 721.501 1247.98 737.935 1217 697.39 C 1171.93 700.185 1117.23 705.437 1072.07 710.21 C 1075.34 761.983 1075.69 818.87 1077.73 871.376 C 1057.6 855.356 1049.47 852.748 1024 849.56 L 1024.02 713.036 L 1002.02 711.815 C 1002.06 755.079 998.473 801.535 997.806 845.478 C 989.57 843.754 979.294 842.781 970.847 841.887 C 972.653 798.691 974.843 753.175 975.55 710.048 C 965.187 708.323 949.219 707.159 938.425 706.076 L 863.22 698.806 C 841.549 724.375 816.624 725.996 788.161 711.141 C 803.912 691.422 829.953 665.019 835.808 640.209 C 836.919 635.505 836.887 628.37 836.908 623.421 C 844.487 624.982 850.809 626.145 858.463 627.205 C 859.876 628.351 862.42 630.979 863.835 632.348 C 898.267 629.985 945.055 623.735 978.106 623.061 C 978.006 600.716 980.057 577.043 980.171 553.887 C 970.605 548.634 962.267 543.977 953.496 537.368 C 949.66 534.477 941.538 525.457 938.531 525.37 C 932.298 532.785 940.622 556.348 931.229 567.879 C 919.239 582.599 906.487 587.045 890.133 596.143 C 867.921 608.5 852.021 614.828 829.517 597.592 C 824.388 602.329 821.128 605.617 815.167 609.282 C 816.932 613.996 818.019 618.937 818.395 623.957 C 820.305 650.152 799.193 668.398 784.402 688.495 C 775.782 700.207 761.641 704.536 747.42 705.409 L 745.719 716.578 L 746.917 717.144 C 769.369 727.948 771.396 746.158 775.431 768.196 C 779.529 790.58 783.867 803.297 773.48 824.735 L 780.082 831.807 C 793.939 822.996 810.22 819.358 825.375 826.68 C 860.023 843.422 891.383 841.843 895.969 886.602 C 905.136 888.284 914.269 890.144 923.365 892.179 C 938.261 860.242 961.706 857.863 992.489 863.234 C 1032.46 870.21 1070.14 866.004 1077.55 916.596 C 1088.65 917.471 1103.6 920.362 1114.56 922.551 C 1137.81 883.171 1164.89 891.788 1200.38 902.322 C 1239.36 913.888 1271.93 920.942 1264.88 971.378 C 1273.96 977.093 1282.34 982.989 1291.13 989.131 C 1309.37 980.526 1327.1 976.107 1345.69 987.996 C 1351.12 991.505 1355.83 996.022 1359.56 1001.3 C 1366.75 1011.29 1388.07 1056.99 1390.64 1068.98 C 1393.59 1082.22 1391.07 1096.1 1383.65 1107.45 C 1373.62 1122.59 1360.19 1128.22 1343.35 1131.58 C 1338.6 1140.94 1334.75 1148.29 1329.22 1157.32 C 1355.12 1205.36 1320.51 1229.83 1281.88 1247.03 C 1262.45 1255.68 1246.52 1267.74 1223.09 1260.78 C 1208.1 1256.33 1201.55 1248.86 1194.13 1236.13 C 1182.07 1238.96 1170.15 1240.54 1157.69 1243.62 C 1151.08 1282.52 1128.38 1289.16 1093.28 1293.9 C 1079.2 1295.8 1064.36 1299.63 1050.05 1299.59 C 1043.45 1299.58 1036.9 1298.45 1030.68 1296.25 C 1016.41 1291.11 1008.42 1281.95 1002.01 1268.83 L 964.17 1277.5 C 961.841 1319.32 936.601 1324.27 903.22 1337.26 C 869.923 1350.22 852.947 1359.8 822.127 1334.94 C 816.204 1339.61 807.686 1345.18 801.349 1349.59 C 810.542 1381.09 798.865 1394.89 780.433 1418.12 C 788.526 1421.08 796.779 1423.57 805.154 1425.6 C 877.416 1443.31 934.844 1411.98 952.126 1338.17 C 970.14 1321.58 976.178 1315.69 982.067 1291.46 C 982.007 1313.35 981.358 1335.65 974.806 1356.66 C 947.342 1444.18 869.802 1474.33 785.152 1447.71 C 675.581 1413.25 602.902 1326.4 551.91 1227.33 C 549.398 1222.45 547.846 1217.2 545.291 1212.45 C 544.946 1217.94 553.442 1239.32 556.01 1245.83 C 601.874 1364.24 690.915 1455.28 808.708 1502.98 C 884.312 1533.59 990.125 1549.03 1023.99 1634.25 L 1024.01 1314.28 C 1039.82 1318.73 1048.14 1318.75 1064.24 1316.81 C 1069.71 1316.63 1087.24 1313.69 1093.56 1312.78 C 1095.63 1351.74 1108.98 1386.82 1141.18 1410.95 C 1167.37 1430.57 1202.07 1433.54 1233.57 1427.69 C 1303.84 1414.63 1364.75 1367.68 1409.35 1313.5 C 1422.14 1297.87 1433.79 1279.92 1445.44 1263.48 C 1422.75 1256.66 1386.35 1246.68 1363.44 1241.59 C 1440.27 1182.43 1480.53 1141.65 1535.46 1061.68 C 1577.8 1139.21 1584.61 1237.93 1563.43 1322.77 C 1560.58 1334.19 1557.09 1345.43 1554.22 1356.85 C 1540.27 1342.91 1519.43 1317.46 1506.07 1301.93 C 1455.27 1423.76 1363.33 1514.76 1244.64 1570.6 C 1148.04 1616.04 1092.6 1628.23 1024.09 1717.06 C 1008.47 1696.33 1000.07 1685.5 979.713 1668.62 C 955.128 1677.43 931.204 1679.4 905.479 1681.76 C 889.923 1724.7 860.427 1720.91 823.051 1711.03 C 810.987 1707.84 797.424 1705.79 786.014 1700.67 C 779.281 1697.72 773.244 1693.38 768.293 1687.95 C 756.61 1674.94 756.994 1662.5 758.027 1646.6 C 748.695 1641.19 739.846 1634.98 731.578 1628.06 C 717.368 1637.87 700.238 1640.86 683.985 1634.15 C 676.718 1631.12 670.235 1626.49 665.025 1620.59 C 653.852 1607.93 640.797 1578.11 633.131 1562.06 C 619.434 1533.39 631.972 1507.34 659.804 1495.43 L 660.86 1475.47 C 650.027 1463.17 637.534 1451.88 626.557 1439 C 588.408 1394.21 565.55 1354.9 541.753 1301.96 C 526.321 1320.15 510.508 1337.69 495.262 1356.13 C 491.937 1347.66 489.145 1339 486.904 1330.19 C 464.69 1245.23 467.777 1139.56 512.802 1062.47 C 521.168 1072.81 531.556 1089.33 540.227 1100.82 C 561.26 1128.64 584.43 1154.77 609.527 1178.98 C 623.594 1192.5 638.69 1204.8 653.837 1217.06 C 663.846 1225.16 675.466 1233.06 684.594 1242.04 C 658.991 1247.6 628.662 1256.35 602.907 1263.04 C 627.077 1303.82 656.255 1336.3 691.404 1367.7 C 704.691 1345.11 730.302 1312.15 758.961 1317.14 C 768.744 1318.85 774.128 1321.26 781.912 1326.86 C 791.295 1319.79 798.456 1315.09 808.348 1308.84 C 796.841 1260 833.179 1247.67 869.948 1233.58 C 906.627 1219.52 930.327 1211.62 957.216 1248.66 C 969.103 1245.02 985.389 1242.17 997.666 1239.93 C 998.14 1236.71 998.831 1232.41 999.644 1229.27 C 1002.87 1216.76 1011 1206.07 1022.21 1199.63 C 1035.43 1192.13 1088.98 1183.59 1104.38 1183.29 C 1110.41 1183.13 1116.42 1183.94 1122.18 1185.69 C 1138.1 1190.67 1145.39 1201.08 1152.77 1214.75 C 1163.08 1211.68 1175.62 1209.68 1186.32 1207.88 C 1187.66 1178.38 1198.22 1168.15 1223.58 1156.37 C 1254.49 1142.01 1271.26 1125.14 1306.77 1136.74 C 1309 1133.55 1311.3 1129.21 1313.27 1125.76 C 1291.35 1111.86 1287.84 1096.63 1276.97 1074.12 C 1267.03 1053.52 1258.14 1034.57 1269.24 1012 C 1264.06 1007.8 1258.31 1003.56 1252.97 999.488 C 1243.34 1009.46 1232.47 1016.09 1218.46 1016.98 C 1202.96 1017.96 1151.59 1001.76 1138.17 995.603 C 1132.16 992.874 1126.62 989.202 1121.76 984.724 C 1112.58 976.103 1109.37 964.247 1109.16 951.99 C 1097.76 949.183 1085.72 948.324 1073.53 945.318 C 1072.03 947.995 1070.44 950.843 1068.78 953.416 C 1061.23 965.028 1049.33 973.117 1035.76 975.861 C 1020.73 978.75 968.23 970.615 953.592 966.113 C 948.162 964.483 943.029 961.989 938.392 958.728 C 925.196 949.318 920.417 936.446 918.13 921.253 C 909.31 918.948 898.606 916.913 889.576 914.953 C 874.938 936.56 855.576 946.938 829.529 935.865 C 794.014 920.767 741.202 907.372 761.571 855.904 C 756.725 851.236 753.136 847.382 748.645 842.355 C 700.026 854.955 688.601 820.112 683.13 781.959 C 677.839 745.062 676.647 727.559 716.311 713.746 C 717.938 708.439 719.521 700.389 720.788 694.774 C 682.789 661.633 709.517 632.606 733.218 603.871 C 753.048 579.828 768.724 575.048 796.706 589.348 C 802.026 584.954 807.456 580.694 812.991 576.573 C 801.111 532.394 830.635 524.911 862.122 507.076 C 882.439 495.568 895.959 493.054 916.853 505.469 L 923.143 500.709 C 886.826 443.982 918.543 362.334 979.079 338.578 C 991.826 333.575 1001.92 331.708 1015.42 330.42 z M 966.439 467.761 C 972.851 462.315 978.765 456.691 987.455 457.484 C 1005.3 459.114 1005.09 479.579 991.92 487.808 C 989.066 489.591 986.559 491.194 983.717 492.797 C 992.29 498.722 996.913 501.995 1006.79 505.73 C 1023.96 510.076 1039.59 509.296 1055.12 500.106 C 1070.19 490.993 1081 476.233 1085.14 459.111 C 1089.04 443.239 1085.65 426.798 1077.14 413.045 C 1068.31 398.546 1053.92 388.307 1037.32 384.72 C 1031.17 383.393 1024.86 382.928 1018.58 383.339 C 984.055 388.123 957.431 417.133 962.564 452.941 C 963.34 458.002 964.638 462.968 966.439 467.761 z M 694.674 1609.15 C 697.802 1609.8 700.382 1610.76 703.276 1609.72 C 701.374 1603.55 686.307 1595.09 693.455 1585.24 C 705.537 1568.59 716.445 1583.26 725.321 1589.18 C 728.063 1578.46 707.632 1545.03 702.232 1534.02 C 699.148 1527.74 694.504 1522.97 688.87 1518.85 C 690.066 1527.94 691.988 1536.92 685.945 1544.57 C 679.757 1552.42 672.504 1550.51 666.399 1544.17 C 661.327 1538.91 663.728 1530.19 660.322 1526.77 C 645.456 1533.6 664.583 1566.34 669.762 1575.55 C 676.183 1586.97 682.174 1603.7 694.674 1609.15 z M 1279.45 1161.11 C 1268.74 1164.81 1218.56 1186.98 1216.35 1196.27 C 1221.76 1200.75 1243.61 1190.7 1245.02 1209.32 C 1246.11 1223.8 1235.36 1223.64 1226.45 1229.36 C 1230.44 1234.52 1240.51 1233.54 1246.2 1232.7 C 1262.69 1225.32 1297.62 1209.85 1307.82 1195.73 C 1308.36 1191.68 1308.98 1187.67 1309.2 1183.59 C 1301.36 1191.14 1290.15 1201.63 1279.24 1191.04 C 1265.98 1178.17 1286.55 1168.43 1288.38 1161.52 C 1284.27 1160.72 1283.7 1160.83 1279.45 1161.11 z M 755.213 1407.6 L 758.772 1401.84 C 765.243 1393.65 775.696 1381.72 778.643 1372.05 L 777.747 1370.48 C 771.994 1371.75 766.949 1375.21 761.34 1376.81 C 749.27 1380.26 739.768 1366.59 747.272 1356.51 C 749.542 1353.46 756.952 1347.13 757.074 1344.85 C 754.417 1343.67 753.643 1343.94 750.726 1344 C 736.833 1347.79 722.846 1370.04 713.463 1382.51 C 728.104 1392.22 739.327 1400.03 755.213 1407.6 z M 1326.1 1080.5 C 1335.15 1065.98 1352.29 1070.38 1354.76 1087.15 C 1355.13 1089.71 1354.03 1095.72 1353.61 1098.5 C 1371.96 1082.39 1359.18 1065.88 1351.62 1046.7 C 1345.29 1030.66 1335.64 1008.98 1316.05 1007.66 C 1321.52 1013.45 1328.84 1019.58 1327.64 1027.86 C 1324.52 1049.25 1304.45 1042.2 1294.28 1031.46 L 1293.04 1031.33 C 1289.52 1039.44 1316.19 1090.85 1322.99 1099.18 C 1323.71 1093 1324.17 1086.37 1326.1 1080.5 z M 848.383 913.226 C 852.18 912.723 858.682 911.94 860.996 908.513 L 860.393 907.231 L 859.107 907 C 850.181 905.312 838.799 898.555 841.447 887.351 C 844.493 874.46 860.14 878.203 869.704 879.854 C 860.644 866.076 817.869 848.186 801.805 849.207 L 801.247 851.317 L 802.478 852.093 C 826.355 867.36 809.298 899.454 782.733 872.851 C 784.35 880.935 785.812 886.406 793.707 890.978 C 805.784 897.972 835.711 910.474 848.383 913.226 z M 746.759 795.466 C 748.397 797.748 752.344 804.136 754.33 804.861 C 757.739 796.863 746.536 751.137 741.519 742.145 C 740.543 747.943 739.895 757.933 734.454 761.435 C 712.025 775.872 714.314 745.294 711.668 742.648 C 699.258 758.001 707.576 768.485 709.839 786.368 C 710.908 794.814 715.996 818.367 727.03 817.83 C 726.106 810.747 720.904 804.41 726.076 797.427 C 730.953 790.844 740.828 790.044 746.759 795.466 z M 948.259 926.028 C 949.778 927.887 955.833 935.525 957.751 936.272 C 975.581 943.212 998.766 944.209 1017.85 947.284 C 1021.84 947.927 1026.71 947.961 1030.31 947.603 C 1036.24 944.828 1037.81 943.855 1043.13 940.185 C 1034.39 939.454 1026.38 939.397 1020.2 932.169 C 1015.09 926.186 1016.06 918.065 1022.55 913.568 C 1030.38 908.146 1037.76 910.293 1046.45 911.543 C 1043.78 905.969 1043.12 905.196 1038.94 900.604 C 1025.28 895.604 979.172 888.44 964.894 889.073 C 960.786 891.331 957.358 892.802 954.184 896.216 L 954.541 897.442 C 971.401 897.52 991.128 911.61 971.519 926.014 C 966.475 929.719 954.53 927.1 948.259 926.028 z M 783.97 1660.16 C 788.497 1669.63 794.076 1675.79 804.654 1678.65 C 818.856 1682.5 846.675 1689.84 860.477 1691.02 C 865.331 1689.77 871.377 1687.82 874.272 1683.43 L 874.319 1682.35 C 864.389 1681.75 848.398 1681.84 849.889 1666.09 C 851.222 1652.01 866.784 1653.04 877.468 1653.06 C 867.655 1643.65 854.078 1641.03 841.023 1638.23 C 829.789 1635.82 813.642 1630.79 802.517 1631.97 L 797.326 1634.54 C 804.016 1639.78 814.643 1642.68 816.468 1653.14 C 817.835 1660.96 806.964 1665.64 801.178 1667.36 C 793.832 1665.34 790.807 1664.24 783.97 1660.16 z M 935.18 1283.44 C 926.913 1286.93 920.059 1290.34 911.096 1286.57 C 903.418 1283.35 900.588 1274.66 904.457 1267.43 C 908.691 1259.52 916.264 1258.03 924.246 1255.89 C 920.648 1253.42 915.909 1249.97 911.574 1250.27 C 901.922 1251.58 847.841 1270 840.62 1279.27 C 838.142 1282.45 835.412 1289.49 833.827 1293.73 C 843.682 1287.31 856.435 1277.76 865.582 1291.22 C 877.037 1308.07 848.971 1314.81 849.607 1318.86 C 853.241 1320.31 854.133 1320.61 857.931 1321.5 C 870.84 1320.89 920.294 1301.92 930.458 1291.71 C 931.952 1290.22 934.163 1285.59 935.18 1283.44 z M 796.136 626.922 C 790.775 630.567 783.9 636.356 777.537 635.135 C 766.138 632.947 761.296 617.818 770.893 610.426 C 771.214 610.179 773.504 607.609 773.722 607.374 C 771.683 606.177 768.799 606.921 765.885 607.094 C 753.642 615.394 723.803 650.326 727.764 665.926 L 729.261 666.596 L 729.848 665.485 C 740.562 645.65 766.358 649.911 754.914 678.565 C 764.379 677.626 792.025 637.625 796.136 626.922 z M 834.956 559.189 C 845.282 553.809 854.111 548.306 862.685 561.164 C 866.794 567.326 853.467 577.807 852.972 582.016 C 856.345 583.321 857.301 583.221 860.822 583.441 C 872.764 578.026 910.547 560.315 911.936 547.238 C 910.245 546.571 908.871 547.101 907.247 548.192 C 898.765 553.888 890.849 553.449 885.859 543.492 C 881.711 535.215 889.74 529.713 894.523 523.598 L 893.442 522.215 L 889.067 521.953 C 873.872 528.213 842.843 541.131 836.246 556.201 L 835.46 557.976 C 835.292 558.38 835.124 558.784 834.956 559.189 z M 1157.66 921.314 C 1151.1 923.514 1149.96 924.196 1144.13 927.78 C 1151.53 929.292 1164.54 931.462 1167.47 938.77 C 1176.85 962.108 1149.45 959.213 1138.56 957.083 C 1141.69 964.447 1142.96 968.089 1151.53 970.575 C 1167.39 975.179 1203.41 988.648 1218.52 988.17 C 1221.96 986.692 1222.81 987.107 1224.1 984.547 C 1221.31 980.493 1212.58 978.974 1209.05 975.359 C 1195.92 961.899 1212.01 948.443 1226.51 952.267 C 1230.84 953.409 1234.55 955.872 1238.3 958.06 C 1234.3 948.456 1231.89 943.157 1220.97 939.516 C 1206.48 934.681 1171.48 921.056 1157.66 921.314 z M 1128.89 1247.58 C 1115.91 1251.11 1101.64 1255.96 1097.12 1238.37 C 1092.99 1222.32 1116.25 1222.65 1120.36 1217.67 C 1115.97 1211.08 1103.32 1211.22 1096.44 1212.37 C 1084.4 1214.09 1072.35 1215.92 1060.36 1217.88 C 1044.91 1220.41 1038.18 1221.09 1028.32 1233.52 C 1035.95 1232.48 1048 1230 1052.75 1234.75 C 1070.07 1252.06 1049.37 1261.51 1033.54 1262.58 C 1033.32 1263.03 1033.11 1263.47 1032.9 1263.92 C 1038.83 1271.57 1053.28 1270.98 1061.78 1269.75 C 1081.48 1265.84 1114.8 1266.29 1126.52 1250.71 L 1128.89 1247.58 z M 953.916 1646.76 C 931.693 1632.67 909.32 1618.61 885.508 1607.32 C 851.534 1591.2 817.114 1577.57 783.327 1560.87 C 771.604 1554.95 760.167 1548.48 749.055 1541.48 C 744.909 1538.9 733.571 1531.35 729.704 1529.58 C 742.557 1553.8 760.52 1577.7 748.247 1605.42 C 754.751 1611.26 763.051 1616.07 770.511 1620.75 C 796.178 1597.27 815.251 1604.35 845.501 1611.89 C 875.306 1619.31 894.928 1620.75 905.986 1653.43 C 913.914 1652.63 922.014 1651.92 929.866 1650.66 C 938.341 1649.52 945.571 1648.52 953.916 1646.76 z"/>
<path transform="translate(0,0)" fill="#f0f0f0" d="M 1079.81 969.744 C 1081.76 972.28 1082.31 1020.12 1082.55 1028.93 L 1087.18 1166.48 C 1068.35 1170.21 1049.46 1172.22 1030.24 1176.17 C 1028.43 1176.59 1027.34 1176.64 1025.49 1176.84 C 1025.11 1176.27 1024.72 1175.7 1024.34 1175.13 C 1023.17 1131.18 1024.59 1034.2 1024.1 996.376 C 1026.92 996.231 1029.74 996.009 1032.55 995.708 C 1051.96 993.588 1067.68 984.932 1079.81 969.744 z"/>
<path transform="translate(0,0)" fill="#f0f0f0" d="M 966.99 987.974 C 974.316 989.388 985.014 990.456 992.649 991.462 C 991.697 1015.68 986.776 1218.01 983.982 1224.44 C 976.029 1225.39 967.025 1227.45 959.086 1229.06 C 958.827 1207.95 960.453 1187.26 961.338 1166.19 C 963.112 1123.98 963.778 1081.71 965.203 1039.5 C 965.78 1022.39 965.849 1005 966.99 987.974 z"/>
</svg>